<svg width="509" height="472" viewBox="0 0 509 472" fill="none" xmlns="http://www.w3.org/2000/svg">
<path fill-rule="evenodd" clip-rule="evenodd" d="M60.7253 207.635C74.7442 154.97 71.5281 93.9248 113.868 59.6097C157.266 24.4373 218.192 25.9289 273.245 35.3965C326.711 44.5912 382.34 64.2845 410.542 110.629C437.227 154.482 420.47 208.689 409.166 258.763C399.061 303.522 386.225 348.814 350.32 377.385C313.363 406.794 265.3 407.701 218.168 410.748C150.774 415.105 65.035 451.879 23.6599 398.502C-17.6172 345.252 43.3945 272.743 60.7253 207.635Z" fill="#E5EAF4"/>
<g clip-path="url(#clip0_47_381)">
<path d="M75.3767 343.701L74.8702 342.765C81.661 339.092 90.1124 334.521 94.5267 327.02C98.8782 319.625 98.9758 309.584 94.7815 300.815C91.2121 293.351 84.6552 286.665 75.8199 281.478C74.0771 280.454 72.2477 279.485 70.4784 278.547C66.202 276.28 61.7799 273.936 58.1336 270.611C53.1116 266.031 49.3118 258.345 52.1439 251.499C53.0753 249.314 54.6007 247.433 56.5469 246.072C58.4931 244.71 60.7821 243.921 63.1539 243.795L63.214 244.858C61.0411 244.974 58.944 245.696 57.1606 246.943C55.3773 248.19 53.9792 249.912 53.125 251.913C50.4932 258.275 54.104 265.495 58.8512 269.824C62.3978 273.059 66.7593 275.37 70.9771 277.606C72.7564 278.549 74.5963 279.524 76.3591 280.559C85.3782 285.854 92.0808 292.699 95.7422 300.355C100.087 309.44 99.9733 319.864 95.4445 327.56C90.8798 335.317 82.2838 339.966 75.3767 343.701Z" fill="#F1F1F1"/>
<path d="M69.9021 249.408C75.0484 249.408 79.2202 247.382 79.2202 244.882C79.2202 242.382 75.0484 240.355 69.9021 240.355C64.7559 240.355 60.584 242.382 60.584 244.882C60.584 247.382 64.7559 249.408 69.9021 249.408Z" fill="#F1F1F1"/>
<path d="M77.3572 279.228C82.5035 279.228 86.6753 277.202 86.6753 274.702C86.6753 272.202 82.5035 270.176 77.3572 270.176C72.2109 270.176 68.0391 272.202 68.0391 274.702C68.0391 277.202 72.2109 279.228 77.3572 279.228Z" fill="#F1F1F1"/>
<path d="M60.3181 284.021C65.4644 284.021 69.6363 281.995 69.6363 279.495C69.6363 276.995 65.4644 274.969 60.3181 274.969C55.1719 274.969 51 276.995 51 279.495C51 281.995 55.1719 284.021 60.3181 284.021Z" fill="#F1F1F1"/>
<path d="M86.9412 309.049C92.0874 309.049 96.2593 307.022 96.2593 304.522C96.2593 302.023 92.0874 299.996 86.9412 299.996C81.7949 299.996 77.623 302.023 77.623 304.522C77.623 307.022 81.7949 309.049 86.9412 309.049Z" fill="#F1F1F1"/>
<path d="M105.578 309.049C110.724 309.049 114.896 307.022 114.896 304.522C114.896 302.023 110.724 299.996 105.578 299.996C100.432 299.996 96.2598 302.023 96.2598 304.522C96.2598 307.022 100.432 309.049 105.578 309.049Z" fill="#F1F1F1"/>
<path d="M168.393 233.184H190.385C191.886 224.507 191.886 215.637 190.385 206.96H168.393C170.87 215.526 170.87 224.618 168.393 233.184Z" fill="#2563EB"/>
<path d="M100.523 337.292H106.562L109.435 313.996L100.521 313.997L100.523 337.292Z" fill="#FFB7B7"/>
<path d="M98.9824 335.32L110.876 335.319C112.886 335.319 114.814 336.118 116.236 337.54C117.657 338.961 118.455 340.889 118.456 342.899V343.146L98.9828 343.146L98.9824 335.32Z" fill="#2F2E41"/>
<path d="M173.081 337.094L178.945 335.651L176.169 312.343L167.514 314.473L173.081 337.094Z" fill="#FFB7B7"/>
<path d="M171.113 335.547L182.662 332.704C184.614 332.224 186.677 332.538 188.397 333.579C190.117 334.62 191.353 336.301 191.833 338.253L191.892 338.492L172.984 343.146L171.113 335.547Z" fill="#2F2E41"/>
<path d="M96.8105 331.737L98.0651 325.318C98.0651 325.318 100.374 300.532 116.947 275.796L122.342 248.925C122.342 248.925 120.74 228.585 136.203 217.575L140.97 214.291L157.684 215.249L161.544 236.385L169.322 286.395C169.322 286.395 171.33 286.583 172.082 292.366C173.612 294.795 174.517 297.564 174.717 300.428C174.717 300.428 178.698 311.41 179.764 319.496L179.638 327.408L171.233 331.886L153.714 282.338L141.184 254.637C141.184 254.637 135.153 274.154 125.916 290.874C125.916 290.874 113.263 318.261 110.736 323.825L107.976 332.931L96.8105 331.737Z" fill="#2F2E41"/>
<path d="M152.695 171.761C159.293 171.761 164.641 166.412 164.641 159.814C164.641 153.215 159.293 147.866 152.695 147.866C146.097 147.866 140.748 153.215 140.748 159.814C140.748 166.412 146.097 171.761 152.695 171.761Z" fill="#FFB7B7"/>
<path d="M152.695 171.761C159.293 171.761 164.641 166.412 164.641 159.814C164.641 153.215 159.293 147.866 152.695 147.866C146.097 147.866 140.748 153.215 140.748 159.814C140.748 166.412 146.097 171.761 152.695 171.761Z" fill="#FFB8B8"/>
<path d="M136.236 217.703L140.18 207.851C137.394 198.825 137.564 189.145 140.668 180.223L141.422 179.601C147.995 174.188 153.765 175.173 159.118 181.796C159.981 182.872 160.989 183.823 162.114 184.62C164.475 186.277 168.221 195.278 163.275 200.555L159.318 223.639C159.735 236.384 150.487 231.584 136.236 217.703Z" fill="#3F3D56"/>
<path d="M171.256 231.312C171.176 230.677 170.958 230.068 170.617 229.527C170.276 228.986 169.821 228.526 169.283 228.18C168.745 227.834 168.138 227.61 167.504 227.524C166.871 227.438 166.226 227.492 165.615 227.683L159.213 220.007L153.6 222.76L162.794 233.473C163.181 234.478 163.924 235.305 164.88 235.799C165.837 236.292 166.942 236.418 167.985 236.151C169.028 235.885 169.937 235.245 170.54 234.353C171.143 233.461 171.397 232.379 171.256 231.312Z" fill="#FFB7B7"/>
<path d="M157.695 231.211L141.664 207.18L146.3 189.756C147.064 188.184 148.421 186.979 150.073 186.407C151.725 185.835 153.537 185.942 155.11 186.705C156.682 187.469 157.888 188.825 158.461 190.477C159.034 192.128 158.928 193.94 158.166 195.514L152.616 206.98L165.635 225.652L157.695 231.211Z" fill="#CCCCCC"/>
<path d="M131.399 157.197C137.729 157.197 142.86 152.065 142.86 145.735C142.86 139.404 137.729 134.272 131.399 134.272C125.069 134.272 119.938 139.404 119.938 145.735C119.938 152.065 125.069 157.197 131.399 157.197Z" fill="#2F2E41"/>
<path d="M121.512 155.226C122.995 156.298 124.714 157 126.524 157.272C128.334 157.543 130.183 157.378 131.916 156.788C133.649 156.199 135.215 155.203 136.485 153.884C137.754 152.566 138.689 150.962 139.211 149.207C139.014 150.78 138.492 152.294 137.68 153.654C136.867 155.015 135.782 156.192 134.492 157.112C133.201 158.031 131.735 158.674 130.184 158.998C128.633 159.322 127.031 159.321 125.481 158.995C123.93 158.669 122.464 158.025 121.175 157.104C119.886 156.182 118.802 155.004 117.991 153.643C117.18 152.281 116.661 150.766 116.465 149.194C116.269 147.622 116.401 146.026 116.853 144.507C116.597 146.547 116.894 148.619 117.713 150.505C118.533 152.391 119.845 154.022 121.512 155.226Z" fill="#2F2E41"/>
<path d="M166.744 155.239C164.743 151.657 163.977 150.16 161.397 147.982C159.116 146.055 156.31 145.49 154.046 147.315C151.369 146.158 148.389 145.896 145.551 146.567C142.712 147.238 140.166 148.807 138.29 151.041C136.414 153.275 135.309 156.054 135.138 158.966C134.968 161.878 135.741 164.768 137.343 167.205C138.945 169.643 141.291 171.499 144.032 172.497C146.773 173.495 149.762 173.582 152.556 172.746C155.351 171.91 157.801 170.194 159.543 167.854C161.285 165.514 162.225 162.675 162.225 159.758C162.223 159.246 162.192 158.734 162.133 158.225C164.1 157.949 164.776 155.515 166.744 155.239Z" fill="#2F2E41"/>
<path d="M224.227 344H61.8254C61.6842 344 61.5488 343.943 61.4489 343.844C61.3491 343.744 61.293 343.608 61.293 343.467C61.293 343.326 61.3491 343.19 61.4489 343.091C61.5488 342.991 61.6842 342.935 61.8254 342.935H224.227C224.368 342.935 224.504 342.991 224.604 343.091C224.704 343.19 224.76 343.326 224.76 343.467C224.76 343.608 224.704 343.744 224.604 343.844C224.504 343.943 224.368 344 224.227 344Z" fill="#CBCBCB"/>
<path d="M471.881 42.9433H471.385V29.3468C471.385 28.3134 471.181 27.2901 470.786 26.3354C470.39 25.3806 469.811 24.5131 469.08 23.7824C468.349 23.0517 467.482 22.472 466.527 22.0766C465.573 21.6811 464.549 21.4775 463.516 21.4775H434.712C433.679 21.4775 432.656 21.6811 431.701 22.0765C430.747 22.472 429.879 23.0516 429.148 23.7824C428.418 24.5131 427.838 25.3806 427.443 26.3353C427.047 27.2901 426.844 28.3134 426.844 29.3468V103.938C426.844 106.025 427.673 108.027 429.148 109.503C430.624 110.978 432.625 111.807 434.712 111.807H463.516C465.603 111.807 467.604 110.978 469.08 109.503C470.556 108.027 471.385 106.025 471.385 103.938V52.6215H471.881V42.9433Z" fill="#E5E5E5"/>
<path d="M463.504 23.5254H459.744C459.917 23.9493 459.983 24.4093 459.937 24.8648C459.89 25.3202 459.732 25.7572 459.476 26.1372C459.221 26.5172 458.876 26.8286 458.472 27.0439C458.068 27.2592 457.617 27.3718 457.16 27.3719H440.658C440.2 27.3718 439.75 27.2592 439.346 27.0439C438.942 26.8286 438.597 26.5172 438.341 26.1372C438.086 25.7572 437.928 25.3202 437.881 24.8648C437.835 24.4093 437.901 23.9493 438.073 23.5254H434.562C433.003 23.5254 431.509 24.1445 430.407 25.2466C429.305 26.3487 428.686 27.8435 428.686 29.4021V103.884C428.686 105.443 429.305 106.937 430.407 108.039C431.509 109.142 433.003 109.761 434.562 109.761H463.504C464.276 109.761 465.04 109.609 465.753 109.313C466.466 109.018 467.114 108.585 467.659 108.039C468.205 107.494 468.638 106.846 468.933 106.133C469.228 105.42 469.38 104.656 469.38 103.884V29.4021C469.38 28.6304 469.228 27.8662 468.933 27.1532C468.638 26.4402 468.205 25.7924 467.659 25.2466C467.114 24.7009 466.466 24.2681 465.753 23.9727C465.04 23.6774 464.276 23.5254 463.504 23.5254Z" fill="white"/>
<path d="M464.402 50.833H446.457V52.2549H464.402V50.833Z" fill="#E5E5E5"/>
<path d="M464.402 55.3359H446.457V56.7578H464.402V55.3359Z" fill="#E5E5E5"/>
<path d="M464.402 59.8389H446.457V61.2607H464.402V59.8389Z" fill="#E5E5E5"/>
<path d="M442.991 51.7119H434.322V60.3815H442.991V51.7119Z" fill="#E5E5E5"/>
<path d="M440.251 82.4527C442.334 82.4527 444.023 80.7636 444.023 78.68C444.023 76.5963 442.334 74.9072 440.251 74.9072C438.168 74.9072 436.479 76.5963 436.479 78.68C436.479 80.7636 438.168 82.4527 440.251 82.4527Z" fill="#2563EB"/>
<path d="M450.311 81.7624C452.014 81.7624 453.394 80.3822 453.394 78.6796C453.394 76.9769 452.014 75.5967 450.311 75.5967C448.609 75.5967 447.229 76.9769 447.229 78.6796C447.229 80.3822 448.609 81.7624 450.311 81.7624Z" fill="#2563EB"/>
<path d="M460.37 80.5549C461.405 80.5549 462.245 79.7152 462.245 78.6793C462.245 77.6434 461.405 76.8037 460.37 76.8037C459.334 76.8037 458.494 77.6434 458.494 78.6793C458.494 79.7152 459.334 80.5549 460.37 80.5549Z" fill="#2563EB"/>
<path d="M340.41 107.722H274.288C272.721 107.721 271.218 107.097 270.11 105.989C269.002 104.881 268.379 103.378 268.377 101.811V5.91169C268.379 4.34436 269.002 2.84172 270.11 1.73345C271.218 0.625171 272.721 0.00176882 274.288 0H340.41C341.977 0.00176882 343.479 0.625171 344.588 1.73345C345.696 2.84172 346.319 4.34436 346.321 5.91169V101.811C346.319 103.378 345.696 104.881 344.588 105.989C343.479 107.097 341.977 107.721 340.41 107.722Z" fill="#E5E5E5"/>
<path d="M340.526 103.95H274.172C273.689 103.95 273.226 103.758 272.884 103.416C272.542 103.074 272.35 102.611 272.35 102.128V5.59384C272.35 5.11069 272.542 4.64749 272.884 4.30585C273.226 3.96422 273.689 3.77204 274.172 3.77148H340.526C341.009 3.77204 341.472 3.96422 341.814 4.30585C342.156 4.64749 342.348 5.11069 342.348 5.59384V102.128C342.348 102.611 342.156 103.074 341.814 103.416C341.472 103.758 341.009 103.95 340.526 103.95Z" fill="white"/>
<path d="M307.097 2.31343C307.374 2.31343 307.599 2.08827 307.599 1.81052C307.599 1.53278 307.374 1.30762 307.097 1.30762C306.819 1.30762 306.594 1.53278 306.594 1.81052C306.594 2.08827 306.819 2.31343 307.097 2.31343Z" fill="white"/>
<path d="M334.851 33.377H297.945V35.4976H334.851V33.377Z" fill="#E5E5E5"/>
<path d="M334.851 40.0928H297.945V42.2134H334.851V40.0928Z" fill="#E5E5E5"/>
<path d="M334.851 46.8086H297.945V48.9293H334.851V46.8086Z" fill="#E5E5E5"/>
<path d="M292.777 34.6875H279.848V47.6178H292.777V34.6875Z" fill="#E5E5E5"/>
<path d="M294.942 74.3448C297.779 74.3448 300.079 72.0446 300.079 69.2071C300.079 66.3696 297.779 64.0693 294.942 64.0693C292.105 64.0693 289.805 66.3696 289.805 69.2071C289.805 72.0446 292.105 74.3448 294.942 74.3448Z" fill="#2563EB"/>
<path d="M308.641 73.4053C310.96 73.4053 312.839 71.5257 312.839 69.2071C312.839 66.8884 310.96 65.0088 308.641 65.0088C306.323 65.0088 304.443 66.8884 304.443 69.2071C304.443 71.5257 306.323 73.4053 308.641 73.4053Z" fill="#2563EB"/>
<path d="M322.341 71.7617C323.752 71.7617 324.895 70.6182 324.895 69.2075C324.895 67.7969 323.752 66.6533 322.341 66.6533C320.931 66.6533 319.787 67.7969 319.787 69.2075C319.787 70.6182 320.931 71.7617 322.341 71.7617Z" fill="#2563EB"/>
<path d="M466.138 116.594H271.049C270.344 116.594 269.646 116.733 268.994 117.003C268.343 117.272 267.751 117.668 267.252 118.167C266.754 118.665 266.358 119.257 266.088 119.909C265.819 120.56 265.68 121.259 265.68 121.964V230.673C265.68 232.097 266.245 233.463 267.252 234.47C268.259 235.477 269.625 236.043 271.049 236.043H466.138C467.563 236.043 468.928 235.477 469.935 234.47C470.942 233.463 471.508 232.097 471.508 230.673V121.964C471.508 120.54 470.942 119.174 469.935 118.167C468.928 117.16 467.563 116.594 466.138 116.594Z" fill="#3F3D56"/>
<path d="M464.307 126.085H272.877V234.08H464.307V126.085Z" fill="white"/>
<path d="M368.43 123.139C369.515 123.139 370.394 122.26 370.394 121.175C370.394 120.091 369.515 119.212 368.43 119.212C367.346 119.212 366.467 120.091 366.467 121.175C366.467 122.26 367.346 123.139 368.43 123.139Z" fill="white"/>
<path d="M476.882 232.116H458.2V230.77C458.2 230.735 458.193 230.7 458.179 230.668C458.166 230.635 458.146 230.606 458.122 230.581C458.097 230.556 458.067 230.537 458.035 230.523C458.003 230.51 457.968 230.503 457.933 230.503H451.527C451.492 230.503 451.458 230.51 451.425 230.523C451.393 230.537 451.364 230.556 451.339 230.581C451.314 230.606 451.294 230.635 451.281 230.668C451.267 230.7 451.261 230.735 451.261 230.77V232.116H447.257V230.77C447.257 230.735 447.25 230.7 447.237 230.668C447.224 230.635 447.204 230.606 447.179 230.581C447.154 230.556 447.125 230.537 447.093 230.523C447.06 230.51 447.025 230.503 446.99 230.503H440.585C440.55 230.503 440.515 230.51 440.483 230.523C440.45 230.537 440.421 230.556 440.396 230.581C440.372 230.606 440.352 230.635 440.338 230.668C440.325 230.7 440.318 230.735 440.318 230.77V232.116H436.315V230.77C436.315 230.735 436.308 230.7 436.294 230.668C436.281 230.635 436.261 230.606 436.237 230.581C436.212 230.556 436.182 230.537 436.15 230.523C436.118 230.51 436.083 230.503 436.048 230.503H429.642C429.607 230.503 429.573 230.51 429.54 230.523C429.508 230.537 429.479 230.556 429.454 230.581C429.429 230.606 429.409 230.635 429.396 230.668C429.382 230.7 429.376 230.735 429.376 230.77V232.116H425.372V230.77C425.372 230.735 425.365 230.7 425.352 230.668C425.339 230.635 425.319 230.606 425.294 230.581C425.269 230.556 425.24 230.537 425.207 230.523C425.175 230.51 425.14 230.503 425.105 230.503H418.7C418.665 230.503 418.63 230.51 418.598 230.523C418.565 230.537 418.536 230.556 418.511 230.581C418.486 230.606 418.467 230.635 418.453 230.668C418.44 230.7 418.433 230.735 418.433 230.77V232.116H414.43V230.77C414.43 230.735 414.423 230.7 414.409 230.668C414.396 230.635 414.376 230.606 414.352 230.581C414.327 230.556 414.297 230.537 414.265 230.523C414.233 230.51 414.198 230.503 414.163 230.503H407.757C407.722 230.503 407.688 230.51 407.655 230.523C407.623 230.537 407.594 230.556 407.569 230.581C407.544 230.606 407.524 230.635 407.511 230.668C407.497 230.7 407.491 230.735 407.491 230.77V232.116H403.487V230.77C403.487 230.735 403.48 230.7 403.467 230.668C403.454 230.635 403.434 230.606 403.409 230.581C403.384 230.556 403.355 230.537 403.322 230.523C403.29 230.51 403.255 230.503 403.22 230.503H396.815C396.78 230.503 396.745 230.51 396.713 230.523C396.68 230.537 396.651 230.556 396.626 230.581C396.601 230.606 396.582 230.635 396.568 230.668C396.555 230.7 396.548 230.735 396.548 230.77V232.116H392.545V230.77C392.545 230.735 392.538 230.7 392.524 230.668C392.511 230.635 392.491 230.606 392.467 230.581C392.442 230.556 392.412 230.537 392.38 230.523C392.348 230.51 392.313 230.503 392.278 230.503H342.102C342.067 230.503 342.033 230.51 342 230.523C341.968 230.537 341.938 230.556 341.914 230.581C341.889 230.606 341.869 230.635 341.856 230.668C341.842 230.7 341.835 230.735 341.835 230.77V232.116H337.832V230.77C337.832 230.735 337.825 230.7 337.812 230.668C337.798 230.635 337.779 230.606 337.754 230.581C337.729 230.556 337.7 230.537 337.667 230.523C337.635 230.51 337.6 230.503 337.565 230.503H331.16C331.125 230.503 331.09 230.51 331.058 230.523C331.025 230.537 330.996 230.556 330.971 230.581C330.946 230.606 330.927 230.635 330.913 230.668C330.9 230.7 330.893 230.735 330.893 230.77V232.116H326.89V230.77C326.89 230.735 326.883 230.7 326.869 230.668C326.856 230.635 326.836 230.606 326.811 230.581C326.787 230.556 326.757 230.537 326.725 230.523C326.693 230.51 326.658 230.503 326.623 230.503H320.217C320.182 230.503 320.148 230.51 320.115 230.523C320.083 230.537 320.053 230.556 320.029 230.581C320.004 230.606 319.984 230.635 319.971 230.668C319.957 230.7 319.95 230.735 319.95 230.77V232.116H315.947V230.77C315.947 230.735 315.94 230.7 315.927 230.668C315.913 230.635 315.894 230.606 315.869 230.581C315.844 230.556 315.815 230.537 315.782 230.523C315.75 230.51 315.715 230.503 315.68 230.503H309.275C309.24 230.503 309.205 230.51 309.173 230.523C309.14 230.537 309.111 230.556 309.086 230.581C309.061 230.606 309.042 230.635 309.028 230.668C309.015 230.7 309.008 230.735 309.008 230.77V232.116H305.005V230.77C305.005 230.735 304.998 230.7 304.984 230.668C304.971 230.635 304.951 230.606 304.926 230.581C304.902 230.556 304.872 230.537 304.84 230.523C304.807 230.51 304.773 230.503 304.738 230.503H298.332C298.297 230.503 298.263 230.51 298.23 230.523C298.198 230.537 298.168 230.556 298.144 230.581C298.119 230.606 298.099 230.635 298.086 230.668C298.072 230.7 298.065 230.735 298.065 230.77V232.116H294.062V230.77C294.062 230.735 294.055 230.7 294.042 230.668C294.028 230.635 294.009 230.606 293.984 230.581C293.959 230.556 293.93 230.537 293.897 230.523C293.865 230.51 293.83 230.503 293.795 230.503H287.39C287.319 230.503 287.251 230.531 287.201 230.581C287.151 230.631 287.123 230.699 287.123 230.77V232.116H283.12V230.77C283.12 230.735 283.113 230.7 283.099 230.668C283.086 230.635 283.066 230.606 283.041 230.581C283.017 230.556 282.987 230.537 282.955 230.523C282.922 230.51 282.888 230.503 282.853 230.503H276.447C276.376 230.503 276.309 230.531 276.259 230.581C276.209 230.631 276.18 230.699 276.18 230.77V232.116H263.903C263.062 232.116 262.229 232.282 261.452 232.604C260.675 232.926 259.969 233.397 259.374 233.992C258.779 234.587 258.308 235.293 257.986 236.071C257.664 236.848 257.498 237.681 257.498 238.522V241.419C257.498 243.117 258.173 244.747 259.374 245.948C260.575 247.15 262.205 247.824 263.903 247.824H476.882C478.581 247.824 480.21 247.15 481.411 245.948C482.613 244.747 483.288 243.117 483.288 241.419V238.522C483.288 237.681 483.122 236.848 482.8 236.071C482.478 235.293 482.006 234.587 481.411 233.992C480.817 233.397 480.11 232.926 479.333 232.604C478.556 232.282 477.723 232.116 476.882 232.116Z" fill="#3F3D56"/>
<path d="M411.263 136.367H349.359V138.668H411.263V136.367Z" fill="#CBCBCB"/>
<path d="M411.263 143.652H349.359V145.953H411.263V143.652Z" fill="#CBCBCB"/>
<path d="M411.263 150.937H349.359V153.237H411.263V150.937Z" fill="#CBCBCB"/>
<path d="M343.756 137.789H329.73V151.815H343.756V137.789Z" fill="#CBCBCB"/>
<path d="M368.445 213.96C382 213.96 392.989 202.971 392.989 189.414C392.989 175.858 382 164.868 368.445 164.868C354.889 164.868 343.9 175.858 343.9 189.414C343.9 202.971 354.889 213.96 368.445 213.96Z" fill="#2563EB"/>
<path d="M364.459 193.077H359.312L368.42 174.567L377.575 193.06H372.424V200.755H364.459V193.077Z" fill="white"/>
<path d="M238.881 100.653C242.373 96.5635 247.171 93.8065 252.462 92.8491L250.111 90.8741L252.625 90.6562L255.843 93.361L253.138 96.5788L250.624 96.7967L252.436 94.6418C247.102 95.7013 242.363 98.731 239.162 103.128C235.961 107.524 234.533 112.966 235.162 118.368C235.792 123.77 238.433 128.737 242.56 132.279C246.686 135.822 251.995 137.68 257.43 137.484L257.493 139.236C252.953 139.399 248.464 138.237 244.574 135.89C240.684 133.544 237.561 130.116 235.587 126.024C233.613 121.932 232.873 117.354 233.458 112.848C234.043 108.343 235.928 104.105 238.881 100.653Z" fill="#E5E5E5"/>
<path d="M503.58 116.701C503.357 122.901 500.68 128.758 496.139 132.984C491.598 137.21 485.564 139.459 479.365 139.236L479.428 137.484C484.863 137.68 490.172 135.822 494.299 132.279C498.425 128.737 501.066 123.77 501.696 118.368C502.326 112.966 500.898 107.524 497.697 103.128C494.496 98.731 489.756 95.7013 484.422 94.6418L486.234 96.7967L483.72 96.5788L481.016 93.361L484.233 90.6562L486.747 90.8741L484.397 92.8491C489.926 93.8558 494.909 96.8206 498.432 101.201C501.954 105.581 503.782 111.083 503.58 116.701Z" fill="#E5E5E5"/>
<path d="M508.468 248.149H228.392C228.251 248.149 228.115 248.093 228.015 247.993C227.915 247.893 227.859 247.758 227.859 247.616C227.859 247.475 227.915 247.34 228.015 247.24C228.115 247.14 228.251 247.084 228.392 247.084H508.468C508.609 247.084 508.745 247.14 508.845 247.24C508.945 247.34 509.001 247.475 509.001 247.616C509.001 247.758 508.945 247.893 508.845 247.993C508.745 248.093 508.609 248.149 508.468 248.149Z" fill="#CBCBCB"/>
</g>
<defs>
<clipPath id="clip0_47_381">
<rect width="458" height="344" fill="white" transform="translate(51)"/>
</clipPath>
</defs>
</svg>
