<svg width="50" height="50" viewBox="0 0 50 50" fill="none" xmlns="http://www.w3.org/2000/svg">
<path d="M20.8333 12.5H10.4167C9.3116 12.5 8.25179 12.939 7.47039 13.7204C6.68899 14.5018 6.25 15.5616 6.25 16.6667V35.4167C6.25 36.5217 6.68899 37.5815 7.47039 38.3629C8.25179 39.1443 9.3116 39.5833 10.4167 39.5833H39.5833C40.6884 39.5833 41.7482 39.1443 42.5296 38.3629C43.311 37.5815 43.75 36.5217 43.75 35.4167V16.6667C43.75 15.5616 43.311 14.5018 42.5296 13.7204C41.7482 12.939 40.6884 12.5 39.5833 12.5H29.1667M20.8333 12.5V10.4167C20.8333 9.3116 21.2723 8.25179 22.0537 7.47039C22.8351 6.68899 23.8949 6.25 25 6.25C26.1051 6.25 27.1649 6.68899 27.9463 7.47039C28.7277 8.25179 29.1667 9.3116 29.1667 10.4167V12.5M20.8333 12.5C20.8333 13.6051 21.2723 14.6649 22.0537 15.4463C22.8351 16.2277 23.8949 16.6667 25 16.6667C26.1051 16.6667 27.1649 16.2277 27.9463 15.4463C28.7277 14.6649 29.1667 13.6051 29.1667 12.5M18.75 29.1667C19.8551 29.1667 20.9149 28.7277 21.6963 27.9463C22.4777 27.1649 22.9167 26.1051 22.9167 25C22.9167 23.8949 22.4777 22.8351 21.6963 22.0537C20.9149 21.2723 19.8551 20.8333 18.75 20.8333C17.6449 20.8333 16.5851 21.2723 15.8037 22.0537C15.0223 22.8351 14.5833 23.8949 14.5833 25C14.5833 26.1051 15.0223 27.1649 15.8037 27.9463C16.5851 28.7277 17.6449 29.1667 18.75 29.1667ZM18.75 29.1667C21.4708 29.1667 23.7854 30.9062 24.6458 33.3333M18.75 29.1667C17.457 29.1663 16.1958 29.5668 15.1399 30.313C14.084 31.0592 13.2854 32.1144 12.8542 33.3333M31.25 22.9167H37.5M31.25 31.25H35.4167" stroke="#2563EB" stroke-width="3" stroke-linecap="round" stroke-linejoin="round"/>
</svg>
