<svg width="180" height="48" viewBox="0 0 180 48" fill="none" xmlns="http://www.w3.org/2000/svg">
<path d="M33.9649 21.1716C33.0219 23.8449 32.0793 26.5183 31.1371 29.1916C30.8747 29.9351 30.6055 30.6759 30.339 31.4167L25.0729 35.2941C24.8146 35.4841 24.5467 35.6617 24.3048 35.8722C24.123 36.0308 24.0397 36.0089 23.8948 35.8134C22.3518 33.7141 20.795 31.6244 19.2479 29.5265C16.2065 25.4217 13.1582 21.3169 10.1031 17.2121C9.93223 16.9839 9.98416 16.906 10.1823 16.7598C12.0684 15.3748 13.9486 13.983 15.8229 12.5844C16.0197 12.4368 16.0962 12.46 16.2329 12.6486C19.6042 17.2044 22.9754 21.7602 26.3467 26.316C26.5449 26.5893 26.6501 26.5729 26.8934 26.3884C29.1604 24.7037 31.4292 23.0249 33.6998 21.352C33.7859 21.2891 33.8761 21.2317 33.9649 21.1716Z" fill="white"/>
<path d="M53.1972 12.0225C53.1972 12.1591 53.1795 12.2958 53.1795 12.4325C53.1795 19.0448 53.1795 25.657 53.1795 32.2693C53.1795 32.3103 53.1795 32.3513 53.1699 32.406C53.0606 32.406 53.0524 32.3322 53.0551 32.2556C53.1631 32.1477 53.1084 32.0124 53.1084 31.8907C53.1084 25.3933 53.1107 18.8958 53.1152 12.3983C53.118 12.2739 53.0373 12.1195 53.1972 12.0225Z" fill="#A6BFE2"/>
<path d="M73.8814 18.5176C73.5725 16.2556 72.486 14.4461 70.5493 13.1873C69.2427 12.3345 67.7885 12.027 66.2509 12.0283H53.1972C53.0961 12.139 53.1494 12.273 53.1494 12.3946C53.1494 18.8875 53.1494 25.3809 53.1494 31.8747C53.1494 31.9704 53.1494 32.0674 53.1494 32.1631C53.1494 32.2205 53.1357 32.2683 53.0619 32.2629C51.7052 28.436 50.3489 24.6091 48.9931 20.7823L46.0478 12.4807C45.9959 12.344 45.9767 12.191 45.743 12.191C42.9412 12.201 40.1399 12.201 37.339 12.191C37.2758 12.182 37.2116 12.1983 37.1603 12.2365C37.1091 12.2746 37.0751 12.3315 37.0656 12.3946C36.9645 12.7103 36.8497 13.0192 36.739 13.3308L33.959 21.1691C33.8404 21.2914 33.7581 21.4442 33.7212 21.6105C33.4301 22.4456 33.1294 23.2779 32.8342 24.1117C32.0196 26.4224 31.2032 28.7326 30.385 31.0424C30.3223 31.1551 30.3038 31.2871 30.3331 31.4128C29.8256 32.8706 29.3181 34.3285 28.8105 35.7863C28.8508 35.7944 28.8914 35.8003 28.9322 35.8041C31.4019 35.8041 33.8716 35.8041 36.3399 35.8123C36.564 35.8123 36.5968 35.6975 36.6474 35.5389C37.8128 31.6683 38.9818 27.7991 40.1545 23.9312C40.5207 22.7162 40.8843 21.5012 41.2574 20.2875C41.2847 20.1973 41.2574 20.0333 41.405 20.0401C41.5526 20.047 41.4966 20.211 41.5499 20.2971C41.5578 20.3168 41.5628 20.3375 41.5649 20.3586C43.0811 25.3937 44.5936 30.4287 46.1025 35.4638C46.1859 35.7371 46.2925 35.8232 46.5781 35.8191C47.9148 35.8014 49.2514 35.8465 50.5867 35.8014C51.8879 35.7576 53.1835 35.8123 54.4929 35.6989C56.4446 35.5294 58.4236 35.6469 60.3903 35.6633C60.6992 35.6633 60.7498 35.569 60.7484 35.2888C60.7375 33.0036 60.7484 30.7171 60.7348 28.4319C60.7348 28.1258 60.7826 28.0219 61.1243 28.0219C62.983 28.0397 64.8459 28.0875 66.7033 28.0123C69.8618 27.8852 72.1197 26.3572 73.3675 23.4351C74.0454 21.8552 74.1083 20.1864 73.8814 18.5176ZM66.2277 20.7426C66.0609 21.7171 65.4678 22.3171 64.4851 22.4388C63.2947 22.585 62.0947 22.4743 60.8988 22.5016C60.7006 22.5016 60.743 22.365 60.743 22.2597C60.743 21.5231 60.743 20.7864 60.743 20.0497C60.743 19.3349 60.743 18.6187 60.743 17.9039C60.743 17.7085 60.7717 17.6306 60.9972 17.6306C61.9908 17.6443 62.9858 17.6306 63.9794 17.6306C64.2363 17.6279 64.4926 17.6578 64.742 17.7194C65.5129 17.9176 66.009 18.4028 66.1962 19.1777C66.315 19.6914 66.3276 20.2239 66.2331 20.7426H66.2277Z" fill="white"/>
<path d="M87.796 30.126C86.32 30.126 85.108 29.778 84.16 29.082C83.212 28.374 82.702 27.366 82.63 26.058H86.392C86.428 26.502 86.56 26.826 86.788 27.03C87.016 27.234 87.31 27.336 87.67 27.336C87.994 27.336 88.258 27.258 88.462 27.102C88.678 26.934 88.786 26.706 88.786 26.418C88.786 26.046 88.612 25.758 88.264 25.554C87.916 25.35 87.352 25.122 86.572 24.87C85.744 24.594 85.072 24.33 84.556 24.078C84.052 23.814 83.608 23.436 83.224 22.944C82.852 22.44 82.666 21.786 82.666 20.982C82.666 20.166 82.87 19.47 83.278 18.894C83.686 18.306 84.25 17.862 84.97 17.562C85.69 17.262 86.506 17.112 87.418 17.112C88.894 17.112 90.07 17.46 90.946 18.156C91.834 18.84 92.308 19.806 92.368 21.054H88.534C88.522 20.67 88.402 20.382 88.174 20.19C87.958 19.998 87.676 19.902 87.328 19.902C87.064 19.902 86.848 19.98 86.68 20.136C86.512 20.292 86.428 20.514 86.428 20.802C86.428 21.042 86.518 21.252 86.698 21.432C86.89 21.6 87.124 21.75 87.4 21.882C87.676 22.002 88.084 22.158 88.624 22.35C89.428 22.626 90.088 22.902 90.604 23.178C91.132 23.442 91.582 23.82 91.954 24.312C92.338 24.792 92.53 25.404 92.53 26.148C92.53 26.904 92.338 27.582 91.954 28.182C91.582 28.782 91.036 29.256 90.316 29.604C89.608 29.952 88.768 30.126 87.796 30.126ZM98.8681 30.126C97.8601 30.126 96.9541 29.916 96.1501 29.496C95.3581 29.076 94.7341 28.476 94.2781 27.696C93.8221 26.916 93.5941 25.998 93.5941 24.942C93.5941 23.898 93.8221 22.986 94.2781 22.206C94.7461 21.426 95.3761 20.826 96.1681 20.406C96.9721 19.986 97.8781 19.776 98.8861 19.776C99.8941 19.776 100.794 19.986 101.586 20.406C102.39 20.826 103.02 21.426 103.476 22.206C103.944 22.986 104.178 23.898 104.178 24.942C104.178 25.986 103.944 26.904 103.476 27.696C103.02 28.476 102.39 29.076 101.586 29.496C100.782 29.916 99.8761 30.126 98.8681 30.126ZM98.8681 27.066C99.3601 27.066 99.7681 26.886 100.092 26.526C100.428 26.154 100.596 25.626 100.596 24.942C100.596 24.258 100.428 23.736 100.092 23.376C99.7681 23.016 99.3661 22.836 98.8861 22.836C98.4061 22.836 98.0041 23.016 97.6801 23.376C97.3561 23.736 97.1941 24.258 97.1941 24.942C97.1941 25.638 97.3501 26.166 97.6621 26.526C97.9741 26.886 98.3761 27.066 98.8681 27.066ZM109.141 16.68V30H105.613V16.68H109.141ZM121.483 19.902V30H117.937V28.56C117.637 29.016 117.223 29.388 116.695 29.676C116.167 29.952 115.561 30.09 114.877 30.09C113.701 30.09 112.771 29.706 112.087 28.938C111.415 28.158 111.079 27.102 111.079 25.77V19.902H114.589V25.32C114.589 25.896 114.739 26.352 115.039 26.688C115.351 27.012 115.759 27.174 116.263 27.174C116.779 27.174 117.187 27.012 117.487 26.688C117.787 26.352 117.937 25.896 117.937 25.32V19.902H121.483ZM129.448 26.994V30H127.918C125.338 30 124.048 28.722 124.048 26.166V22.836H122.806V19.902H124.048V17.454H127.594V19.902H129.43V22.836H127.594V26.22C127.594 26.496 127.654 26.694 127.774 26.814C127.906 26.934 128.122 26.994 128.422 26.994H129.448ZM132.849 18.966C132.225 18.966 131.721 18.798 131.337 18.462C130.965 18.114 130.779 17.682 130.779 17.166C130.779 16.638 130.965 16.2 131.337 15.852C131.721 15.504 132.225 15.33 132.849 15.33C133.461 15.33 133.953 15.504 134.325 15.852C134.709 16.2 134.901 16.638 134.901 17.166C134.901 17.682 134.709 18.114 134.325 18.462C133.953 18.798 133.461 18.966 132.849 18.966ZM134.595 19.902V30H131.067V19.902H134.595ZM141.302 30.126C140.294 30.126 139.388 29.916 138.584 29.496C137.792 29.076 137.168 28.476 136.712 27.696C136.256 26.916 136.028 25.998 136.028 24.942C136.028 23.898 136.256 22.986 136.712 22.206C137.18 21.426 137.81 20.826 138.602 20.406C139.406 19.986 140.312 19.776 141.32 19.776C142.328 19.776 143.228 19.986 144.02 20.406C144.824 20.826 145.454 21.426 145.91 22.206C146.378 22.986 146.612 23.898 146.612 24.942C146.612 25.986 146.378 26.904 145.91 27.696C145.454 28.476 144.824 29.076 144.02 29.496C143.216 29.916 142.31 30.126 141.302 30.126ZM141.302 27.066C141.794 27.066 142.202 26.886 142.526 26.526C142.862 26.154 143.03 25.626 143.03 24.942C143.03 24.258 142.862 23.736 142.526 23.376C142.202 23.016 141.8 22.836 141.32 22.836C140.84 22.836 140.438 23.016 140.114 23.376C139.79 23.736 139.628 24.258 139.628 24.942C139.628 25.638 139.784 26.166 140.096 26.526C140.408 26.886 140.81 27.066 141.302 27.066ZM154.653 19.812C155.817 19.812 156.741 20.202 157.425 20.982C158.109 21.75 158.451 22.794 158.451 24.114V30H154.923V24.582C154.923 24.006 154.773 23.556 154.473 23.232C154.173 22.896 153.771 22.728 153.267 22.728C152.739 22.728 152.325 22.896 152.025 23.232C151.725 23.556 151.575 24.006 151.575 24.582V30H148.047V19.902H151.575V21.342C151.887 20.886 152.307 20.52 152.835 20.244C153.363 19.956 153.969 19.812 154.653 19.812ZM164.689 30.126C163.777 30.126 162.961 29.976 162.241 29.676C161.533 29.364 160.969 28.944 160.549 28.416C160.141 27.876 159.913 27.27 159.865 26.598H163.285C163.333 26.922 163.483 27.174 163.735 27.354C163.987 27.534 164.299 27.624 164.671 27.624C164.959 27.624 165.187 27.564 165.355 27.444C165.523 27.324 165.607 27.168 165.607 26.976C165.607 26.724 165.469 26.538 165.193 26.418C164.917 26.298 164.461 26.166 163.825 26.022C163.105 25.878 162.505 25.716 162.025 25.536C161.545 25.356 161.125 25.062 160.765 24.654C160.417 24.246 160.243 23.694 160.243 22.998C160.243 22.398 160.405 21.858 160.729 21.378C161.053 20.886 161.527 20.496 162.151 20.208C162.787 19.92 163.549 19.776 164.437 19.776C165.757 19.776 166.795 20.1 167.551 20.748C168.307 21.396 168.745 22.248 168.865 23.304H165.679C165.619 22.98 165.475 22.734 165.247 22.566C165.031 22.386 164.737 22.296 164.365 22.296C164.077 22.296 163.855 22.35 163.699 22.458C163.555 22.566 163.483 22.716 163.483 22.908C163.483 23.148 163.621 23.334 163.897 23.466C164.173 23.586 164.617 23.712 165.229 23.844C165.961 24 166.567 24.174 167.047 24.366C167.539 24.558 167.965 24.87 168.325 25.302C168.697 25.722 168.883 26.298 168.883 27.03C168.883 27.618 168.709 28.146 168.361 28.614C168.025 29.082 167.539 29.454 166.903 29.73C166.279 29.994 165.541 30.126 164.689 30.126Z" fill="white"/>
</svg>
