<svg width="16" height="24" viewBox="0 0 16 24" fill="none" xmlns="http://www.w3.org/2000/svg">
<path d="M8 11.4286C7.24224 11.4286 6.51551 11.1275 5.9797 10.5917C5.44388 10.0559 5.14286 9.32917 5.14286 8.57141C5.14286 7.81365 5.44388 7.08693 5.9797 6.55111C6.51551 6.01529 7.24224 5.71427 8 5.71427C8.75776 5.71427 9.48449 6.01529 10.0203 6.55111C10.5561 7.08693 10.8571 7.81365 10.8571 8.57141C10.8571 8.94662 10.7832 9.31815 10.6397 9.66479C10.4961 10.0114 10.2856 10.3264 10.0203 10.5917C9.755 10.857 9.44003 11.0675 9.09338 11.2111C8.74674 11.3547 8.37521 11.4286 8 11.4286ZM8 0.571411C5.87827 0.571411 3.84344 1.41427 2.34315 2.91456C0.842855 4.41485 0 6.44968 0 8.57141C0 14.5714 8 23.4286 8 23.4286C8 23.4286 16 14.5714 16 8.57141C16 6.44968 15.1571 4.41485 13.6569 2.91456C12.1566 1.41427 10.1217 0.571411 8 0.571411Z" fill="white"/>
</svg>
