<svg width="64" height="64" viewBox="0 0 64 64" fill="none" xmlns="http://www.w3.org/2000/svg">
<rect width="64" height="64" rx="32" fill="#2563EB"/>
<path d="M43.9999 37.3333H38.6666C37.9302 37.3333 37.3333 37.9303 37.3333 38.6666V44C37.3333 44.7364 37.9302 45.3333 38.6666 45.3333H43.9999C44.7363 45.3333 45.3333 44.7364 45.3333 44V38.6666C45.3333 37.9303 44.7363 37.3333 43.9999 37.3333Z" stroke="white" stroke-width="2" stroke-linecap="round" stroke-linejoin="round"/>
<path d="M25.3334 37.3333H20.0001C19.2637 37.3333 18.6667 37.9303 18.6667 38.6666V44C18.6667 44.7364 19.2637 45.3333 20.0001 45.3333H25.3334C26.0698 45.3333 26.6667 44.7364 26.6667 44V38.6666C26.6667 37.9303 26.0698 37.3333 25.3334 37.3333Z" stroke="white" stroke-width="2" stroke-linecap="round" stroke-linejoin="round"/>
<path d="M34.6667 18.6667H29.3333C28.597 18.6667 28 19.2636 28 20V25.3333C28 26.0697 28.597 26.6667 29.3333 26.6667H34.6667C35.403 26.6667 36 26.0697 36 25.3333V20C36 19.2636 35.403 18.6667 34.6667 18.6667Z" stroke="white" stroke-width="2" stroke-linecap="round" stroke-linejoin="round"/>
<path d="M22.6667 37.3333V33.3333C22.6667 32.9797 22.8072 32.6406 23.0573 32.3905C23.3073 32.1405 23.6465 32 24.0001 32H40.0001C40.3537 32 40.6928 32.1405 40.9429 32.3905C41.1929 32.6406 41.3334 32.9797 41.3334 33.3333V37.3333" stroke="white" stroke-width="2" stroke-linecap="round" stroke-linejoin="round"/>
<path d="M32 32V26.6667" stroke="white" stroke-width="2" stroke-linecap="round" stroke-linejoin="round"/>
</svg>
