<svg width="64" height="64" viewBox="0 0 64 64" fill="none" xmlns="http://www.w3.org/2000/svg">
<rect width="64" height="64" rx="32" fill="#2563EB"/>
<path d="M18.6665 25.3334L24.5465 19.4534C24.7946 19.2038 25.0896 19.0058 25.4145 18.8708C25.7395 18.7358 26.088 18.6664 26.4398 18.6667H37.5598C37.9117 18.6664 38.2602 18.7358 38.5851 18.8708C38.9101 19.0058 39.2051 19.2038 39.4532 19.4534L45.3332 25.3334" stroke="white" stroke-width="2" stroke-linecap="round" stroke-linejoin="round"/>
<path d="M21.3335 32V42.6667C21.3335 43.3739 21.6144 44.0522 22.1145 44.5523C22.6146 45.0524 23.2929 45.3333 24.0002 45.3333H40.0002C40.7074 45.3333 41.3857 45.0524 41.8858 44.5523C42.3859 44.0522 42.6668 43.3739 42.6668 42.6667V32" stroke="white" stroke-width="2" stroke-linecap="round" stroke-linejoin="round"/>
<path d="M36 45.3333V40C36 39.2927 35.719 38.6145 35.219 38.1144C34.7189 37.6143 34.0406 37.3333 33.3333 37.3333H30.6667C29.9594 37.3333 29.2811 37.6143 28.781 38.1144C28.281 38.6145 28 39.2927 28 40V45.3333" stroke="white" stroke-width="2" stroke-linecap="round" stroke-linejoin="round"/>
<path d="M18.6665 25.3333H45.3332" stroke="white" stroke-width="2" stroke-linecap="round" stroke-linejoin="round"/>
<path d="M45.3332 25.3333V29.3333C45.3332 30.0406 45.0522 30.7188 44.5521 31.2189C44.052 31.719 43.3737 32 42.6665 32C41.8875 31.9571 41.1435 31.6623 40.5465 31.16C40.3874 31.045 40.1961 30.9831 39.9998 30.9831C39.8036 30.9831 39.6123 31.045 39.4532 31.16C38.8562 31.6623 38.1122 31.9571 37.3332 32C36.5541 31.9571 35.8101 31.6623 35.2132 31.16C35.0541 31.045 34.8628 30.9831 34.6665 30.9831C34.4702 30.9831 34.2789 31.045 34.1198 31.16C33.5229 31.6623 32.7789 31.9571 31.9998 32C31.2208 31.9571 30.4768 31.6623 29.8798 31.16C29.7207 31.045 29.5295 30.9831 29.3332 30.9831C29.1369 30.9831 28.9456 31.045 28.7865 31.16C28.1895 31.6623 27.4455 31.9571 26.6665 32C25.8875 31.9571 25.1435 31.6623 24.5465 31.16C24.3874 31.045 24.1961 30.9831 23.9998 30.9831C23.8036 30.9831 23.6123 31.045 23.4532 31.16C22.8562 31.6623 22.1122 31.9571 21.3332 32C20.6259 32 19.9476 31.719 19.4476 31.2189C18.9475 30.7188 18.6665 30.0406 18.6665 29.3333V25.3333" stroke="white" stroke-width="2" stroke-linecap="round" stroke-linejoin="round"/>
</svg>
