<svg width="50" height="50" viewBox="0 0 50 50" fill="none" xmlns="http://www.w3.org/2000/svg">
<path d="M18.0917 27.7956C18.5126 26.9539 18.7501 26.0039 18.7501 24.9998C18.7501 23.9956 18.5126 23.0456 18.0917 22.2039M18.0917 27.7956C17.462 29.0548 16.4255 30.0644 15.1503 30.6609C13.8751 31.2575 12.4358 31.406 11.0656 31.0825C9.69541 30.7589 8.4746 29.9822 7.60094 28.8783C6.72729 27.7743 6.25195 26.4076 6.25195 24.9998C6.25195 23.5919 6.72729 22.2253 7.60094 21.1213C8.4746 20.0173 9.69541 19.2406 11.0656 18.9171C12.4358 18.5935 13.8751 18.742 15.1503 19.3386C16.4255 19.9352 17.462 20.9448 18.0917 22.2039M18.0917 27.7956L31.9084 34.7039M18.0917 22.2039L31.9084 15.2956M31.9084 34.7039C31.1669 36.1869 31.0449 37.9038 31.5692 39.4767C32.0935 41.0497 33.2212 42.3499 34.7042 43.0914C36.1872 43.8329 37.9041 43.955 39.477 43.4306C41.05 42.9063 42.3502 41.7786 43.0917 40.2956C43.8332 38.8126 43.9553 37.0958 43.4309 35.5228C42.9066 33.9499 41.7789 32.6496 40.2959 31.9081C39.5616 31.541 38.7622 31.322 37.9433 31.2638C37.1243 31.2056 36.302 31.3093 35.5231 31.5689C33.9502 32.0932 32.6499 33.2209 31.9084 34.7039ZM31.9084 15.2956C32.2756 16.0298 32.7837 16.6844 33.4039 17.2222C34.0241 17.76 34.7441 18.1704 35.5228 18.4299C36.3016 18.6894 37.1238 18.793 37.9426 18.7348C38.7614 18.6765 39.5607 18.4576 40.2949 18.0904C41.029 17.7232 41.6837 17.2151 42.2215 16.5949C42.7593 15.9748 43.1696 15.2547 43.4292 14.476C43.6887 13.6972 43.7923 12.875 43.734 12.0562C43.6758 11.2374 43.4568 10.4381 43.0897 9.70394C42.3482 8.22121 41.048 7.09377 39.4753 6.56965C37.9025 6.04552 36.1859 6.16764 34.7032 6.90915C33.2205 7.65065 32.093 8.95079 31.5689 10.5236C31.0448 12.0963 31.1669 13.8129 31.9084 15.2956Z" stroke="#2563EB" stroke-width="3" stroke-linecap="round" stroke-linejoin="round"/>
</svg>
