<svg width="443" height="393" viewBox="0 0 443 393" fill="none" xmlns="http://www.w3.org/2000/svg">
<path fill-rule="evenodd" clip-rule="evenodd" d="M210.176 27.5213C274.83 28.58 346.878 11.802 392.004 58.0913C440.691 108.032 456.91 188.8 430.205 253.218C406.479 310.451 332.435 314.088 275.617 338.845C223.497 361.554 174.092 408.494 121.099 387.9C65.5768 366.324 48.2349 300.907 31.1854 243.856C11.8916 179.295 -22.2413 103.936 20.7199 52.0117C63.415 0.408892 143.19 26.4244 210.176 27.5213Z" fill="#E5EAF4"/>
<g clip-path="url(#clip0_47_289)">
<path d="M421.576 276.388L422.201 276.376C421.959 269.403 421.217 262.456 419.98 255.589C417.274 240.888 412.774 231.233 406.605 226.892L406.246 227.405C420.656 237.545 421.568 276.001 421.576 276.388Z" fill="#F1F1F1"/>
<path d="M413.752 276.238L414.378 276.226C414.364 275.531 413.973 259.162 407.543 254.638L407.184 255.151C413.354 259.493 413.749 276.071 413.752 276.238Z" fill="#F1F1F1"/>
<path d="M402.686 227.462C404.414 227.462 405.815 226.058 405.815 224.326C405.815 222.594 404.414 221.19 402.686 221.19C400.958 221.19 399.557 222.594 399.557 224.326C399.557 226.058 400.958 227.462 402.686 227.462Z" fill="#F1F1F1"/>
<path d="M404.235 254.431C405.963 254.431 407.364 253.027 407.364 251.295C407.364 249.563 405.963 248.159 404.235 248.159C402.506 248.159 401.105 249.563 401.105 251.295C401.105 253.027 402.506 254.431 404.235 254.431Z" fill="#F1F1F1"/>
<path d="M415.212 229.342C414.898 231.761 415.224 234.22 416.156 236.473C417.785 234.649 418.853 232.391 419.23 229.973C419.608 227.554 419.28 225.077 418.286 222.841C416.711 224.701 415.651 226.943 415.212 229.342Z" fill="#F1F1F1"/>
<path d="M404.982 238.484C407.305 239.215 409.777 239.322 412.154 238.795C410.645 236.869 408.613 235.422 406.302 234.628C403.992 233.834 401.501 233.726 399.131 234.318C400.684 236.196 402.702 237.633 404.982 238.484Z" fill="#F1F1F1"/>
<path d="M404.867 262.368C406.495 262.88 408.228 262.955 409.894 262.585C408.836 261.236 407.412 260.222 405.792 259.665C404.173 259.108 402.427 259.033 400.766 259.447C401.854 260.764 403.268 261.771 404.867 262.368Z" fill="#F1F1F1"/>
<path d="M155.086 276.388L154.178 276.37C154.529 266.249 155.607 256.165 157.402 246.199C161.33 224.86 167.861 210.846 176.815 204.546L177.336 205.291C156.421 220.008 155.097 275.826 155.086 276.388Z" fill="#F1F1F1"/>
<path d="M166.44 276.17L165.531 276.153C165.551 275.145 166.118 251.385 175.452 244.818L175.973 245.563C167.017 251.865 166.444 275.928 166.44 276.17Z" fill="#F1F1F1"/>
<path d="M182.505 205.374C185.013 205.374 187.046 203.336 187.046 200.822C187.046 198.308 185.013 196.271 182.505 196.271C179.996 196.271 177.963 198.308 177.963 200.822C177.963 203.336 179.996 205.374 182.505 205.374Z" fill="#F1F1F1"/>
<path d="M180.255 244.518C182.763 244.518 184.796 242.48 184.796 239.966C184.796 237.452 182.763 235.415 180.255 235.415C177.746 235.415 175.713 237.452 175.713 239.966C175.713 242.48 177.746 244.518 180.255 244.518Z" fill="#F1F1F1"/>
<path d="M164.324 208.102C164.779 211.613 164.306 215.183 162.953 218.453C160.589 215.805 159.039 212.528 158.491 209.018C157.942 205.507 158.419 201.913 159.862 198.667C162.148 201.366 163.687 204.62 164.324 208.102Z" fill="#F1F1F1"/>
<path d="M179.169 221.372C175.798 222.433 172.209 222.588 168.76 221.823C170.95 219.028 173.899 216.928 177.253 215.775C180.607 214.622 184.222 214.466 187.662 215.325C185.408 218.051 182.479 220.136 179.169 221.372Z" fill="#F1F1F1"/>
<path d="M179.337 256.038C176.974 256.781 174.459 256.89 172.041 256.353C173.576 254.395 175.643 252.923 177.994 252.115C180.345 251.307 182.879 251.197 185.29 251.799C183.71 253.71 181.657 255.172 179.337 256.038Z" fill="#F1F1F1"/>
<path d="M84.9151 82.5543L82.7298 69.1558L76.5595 67.6098C76.5595 67.6098 71.6623 66.0981 70.5176 75.9838C69.373 85.8696 70.2604 104.327 70.2604 104.327L56.7131 147.321C55.6728 147.817 54.7971 148.602 54.1907 149.583C53.5843 150.565 53.273 151.7 53.294 152.854C53.3149 154.008 53.6673 155.132 54.309 156.091C54.9506 157.049 55.8543 157.802 56.9118 158.259C57.9694 158.716 59.136 158.858 60.272 158.668C61.408 158.478 62.4653 157.964 63.3172 157.187C64.1692 156.41 64.7797 155.404 65.0758 154.289C65.3718 153.173 65.3408 151.996 64.9865 150.898L82.6013 110.511L84.9151 82.5543Z" fill="#FFB7B7"/>
<path d="M122.439 72.0101L119.199 58.8277L124.268 54.9778C124.268 54.9778 128.18 51.6605 133.106 60.3019C138.032 68.9434 144.447 86.2677 144.447 86.2677L173.75 120.478C174.901 120.525 176.014 120.902 176.956 121.566C177.898 122.23 178.63 123.152 179.063 124.222C179.495 125.291 179.612 126.463 179.397 127.597C179.182 128.732 178.646 129.78 177.853 130.616C177.059 131.453 176.042 132.042 174.923 132.315C173.803 132.587 172.63 132.53 171.542 132.151C170.454 131.772 169.498 131.086 168.789 130.177C168.08 129.268 167.647 128.173 167.542 127.023L135.519 96.8112L122.439 72.0101Z" fill="#FFB7B7"/>
<path d="M147.761 269.367L155.11 269.367L158.606 240.961L147.76 240.962L147.761 269.367Z" fill="#FFB7B7"/>
<path d="M145.887 266.963L160.358 266.962H160.359C162.805 266.963 165.15 267.936 166.88 269.67C168.609 271.403 169.581 273.754 169.581 276.205V276.505L145.887 276.506L145.887 266.963Z" fill="#2F2E41"/>
<path d="M55.4566 269.367L62.8048 269.367L66.3009 240.961L55.4551 240.962L55.4566 269.367Z" fill="#FFB7B7"/>
<path d="M53.582 266.963L68.0536 266.962H68.0541C70.5 266.963 72.8457 267.936 74.5752 269.67C76.3047 271.403 77.2764 273.754 77.2765 276.205V276.505L53.5825 276.506L53.582 266.963Z" fill="#2F2E41"/>
<path d="M100.525 46.7638C111.502 46.7638 120.4 37.8461 120.4 26.8455C120.4 15.845 111.502 6.92725 100.525 6.92725C89.5486 6.92725 80.6504 15.845 80.6504 26.8455C80.6504 37.8461 89.5486 46.7638 100.525 46.7638Z" fill="#2F2E41"/>
<path d="M85.0108 16.1059C88.2225 12.8872 88.8734 8.32093 86.4646 5.90689C84.0559 3.49285 79.4996 4.14516 76.2879 7.36388C73.0762 10.5826 72.4253 15.1489 74.8341 17.5629C77.2429 19.9769 81.7991 19.3246 85.0108 16.1059Z" fill="#2F2E41"/>
<path d="M121.238 9.78099C122.576 6.64146 120.275 2.6468 116.098 0.858678C111.921 -0.929447 107.451 0.166083 106.112 3.30561C104.774 6.44514 107.075 10.4398 111.252 12.2279C115.429 14.016 119.9 12.9205 121.238 9.78099Z" fill="#2F2E41"/>
<path d="M115.955 39.7091C120.424 31.5171 117.419 21.246 109.245 16.7678C101.071 12.2897 90.8227 15.3004 86.3543 23.4923C81.886 31.6843 84.8901 41.9554 93.0641 46.4336C101.238 50.9117 111.487 47.901 115.955 39.7091Z" fill="#FFB7B7"/>
<path d="M83.4316 20.9678C87.2861 23.6302 91.8611 25.0472 96.5423 25.0284C94.8725 26.1888 92.9714 26.9726 90.9702 27.3258C97.1943 28.6639 103.627 28.7001 109.866 27.4322C111.252 27.2094 112.591 26.7488 113.821 26.0707C114.435 25.7275 114.969 25.2587 115.39 24.6949C115.81 24.1311 116.108 23.4848 116.263 22.7982C116.677 20.4247 114.832 18.2684 112.914 16.8151C109.978 14.624 106.592 13.1144 103.003 12.3954C99.4127 11.6765 95.7083 11.7663 92.1573 12.6582C89.8386 13.2589 87.5158 14.2737 86.0098 16.1399C84.5037 18.0061 84.0576 20.8831 85.4925 22.8047L83.4316 20.9678Z" fill="#2F2E41"/>
<path d="M92.7015 53.5832L76.0065 67.2473L90.5937 102.105L90.8719 107.682C90.8719 107.682 75.7291 121.674 66.3596 160.762C56.9901 199.849 38.0664 251.787 38.0664 251.787L75.9241 261.068L102.246 172.649L135.8 242.017L140.573 262.534L169.837 254.392L158.543 199.332L130.842 113.865L133.117 90.2539C133.117 90.2539 138.186 78.4687 129.38 65.9914L126.618 54.2672L112.32 51.8247L92.7015 53.5832Z" fill="#2F2E41"/>
<path d="M373.436 177.633H257.528C256.603 177.632 255.715 177.263 255.061 176.607C254.406 175.951 254.038 175.062 254.037 174.134V134.947C254.038 134.019 254.406 133.13 255.061 132.474C255.715 131.818 256.603 131.449 257.528 131.448H373.436C374.362 131.449 375.249 131.818 375.903 132.474C376.558 133.13 376.926 134.019 376.927 134.947V174.134C376.926 175.062 376.558 175.951 375.903 176.607C375.249 177.263 374.362 177.632 373.436 177.633Z" fill="#E5E5E5"/>
<path d="M302.914 141.945H272.191V145.444H302.914V141.945Z" fill="white"/>
<path d="M343.413 146.143C344.57 146.143 345.508 145.204 345.508 144.044C345.508 142.885 344.57 141.945 343.413 141.945C342.256 141.945 341.318 142.885 341.318 144.044C341.318 145.204 342.256 146.143 343.413 146.143Z" fill="#2563EB"/>
<path d="M350.396 146.143C351.552 146.143 352.49 145.204 352.49 144.044C352.49 142.885 351.552 141.945 350.396 141.945C349.239 141.945 348.301 142.885 348.301 144.044C348.301 145.204 349.239 146.143 350.396 146.143Z" fill="#2563EB"/>
<path d="M357.378 146.143C358.535 146.143 359.473 145.204 359.473 144.044C359.473 142.885 358.535 141.945 357.378 141.945C356.221 141.945 355.283 142.885 355.283 144.044C355.283 145.204 356.221 146.143 357.378 146.143Z" fill="#2563EB"/>
<path d="M373.436 227.317H257.528C256.603 227.315 255.715 226.947 255.061 226.291C254.406 225.635 254.038 224.745 254.037 223.818V184.631C254.038 183.703 254.406 182.814 255.061 182.158C255.715 181.502 256.603 181.133 257.528 181.132H373.436C374.362 181.133 375.249 181.502 375.903 182.158C376.558 182.814 376.926 183.703 376.927 184.631V223.818C376.926 224.745 376.558 225.635 375.903 226.291C375.249 226.947 374.362 227.316 373.436 227.317Z" fill="#E5E5E5"/>
<path d="M302.914 191.628H272.191V195.127H302.914V191.628Z" fill="white"/>
<path d="M343.413 195.827C344.57 195.827 345.508 194.887 345.508 193.728C345.508 192.568 344.57 191.628 343.413 191.628C342.256 191.628 341.318 192.568 341.318 193.728C341.318 194.887 342.256 195.827 343.413 195.827Z" fill="#2563EB"/>
<path d="M350.396 195.827C351.552 195.827 352.49 194.887 352.49 193.728C352.49 192.568 351.552 191.628 350.396 191.628C349.239 191.628 348.301 192.568 348.301 193.728C348.301 194.887 349.239 195.827 350.396 195.827Z" fill="#2563EB"/>
<path d="M357.378 195.827C358.535 195.827 359.473 194.887 359.473 193.728C359.473 192.568 358.535 191.628 357.378 191.628C356.221 191.628 355.283 192.568 355.283 193.728C355.283 194.887 356.221 195.827 357.378 195.827Z" fill="#2563EB"/>
<path d="M373.436 277H257.528C256.603 276.999 255.715 276.63 255.061 275.974C254.406 275.318 254.038 274.429 254.037 273.501V234.314C254.038 233.387 254.406 232.497 255.061 231.841C255.715 231.185 256.603 230.817 257.528 230.815H373.436C374.362 230.816 375.249 231.185 375.903 231.841C376.558 232.497 376.926 233.387 376.927 234.314V273.501C376.926 274.429 376.558 275.318 375.903 275.974C375.249 276.63 374.362 276.999 373.436 277Z" fill="#E5E5E5"/>
<path d="M302.914 241.312H272.191V244.811H302.914V241.312Z" fill="white"/>
<path d="M343.413 245.511C344.57 245.511 345.508 244.571 345.508 243.411C345.508 242.252 344.57 241.312 343.413 241.312C342.256 241.312 341.318 242.252 341.318 243.411C341.318 244.571 342.256 245.511 343.413 245.511Z" fill="#2563EB"/>
<path d="M350.396 245.511C351.552 245.511 352.49 244.571 352.49 243.411C352.49 242.252 351.552 241.312 350.396 241.312C349.239 241.312 348.301 242.252 348.301 243.411C348.301 244.571 349.239 245.511 350.396 245.511Z" fill="#2563EB"/>
<path d="M357.378 245.511C358.535 245.511 359.473 244.571 359.473 243.411C359.473 242.252 358.535 241.312 357.378 241.312C356.221 241.312 355.283 242.252 355.283 243.411C355.283 244.571 356.221 245.511 357.378 245.511Z" fill="#2563EB"/>
<path d="M234.348 192.505C232.141 192.497 229.943 192.212 227.806 191.656L227.385 191.54L226.994 191.344C212.869 184.246 200.952 174.871 191.575 163.479C183.813 153.994 177.761 143.224 173.692 131.655C168.826 117.803 166.485 103.187 166.781 88.5052C166.787 88.197 166.792 87.959 166.792 87.7951C166.792 80.658 170.745 74.3958 176.862 71.8411C181.545 69.886 224.056 52.3864 227.128 51.1221C232.912 48.2172 239.084 50.6418 240.071 51.0657C242.286 51.9734 281.586 68.0825 290.078 72.1354C298.831 76.3123 301.166 83.8161 301.166 87.5914C301.166 104.683 298.212 120.657 292.387 135.069C287.683 146.734 281.015 157.503 272.674 166.908C256.582 185.057 240.486 191.491 240.33 191.547C238.406 192.211 236.382 192.535 234.348 192.505ZM230.563 183.108C231.958 183.421 235.171 183.891 237.265 183.126C239.926 182.154 253.398 175.152 265.988 160.953C283.382 141.335 292.209 116.674 292.221 87.6545C292.19 87.0665 291.774 82.8733 286.233 80.2291C277.905 76.2547 237.056 59.5152 236.645 59.3465L236.532 59.2985C235.676 58.939 232.951 58.1818 231.074 59.168L230.698 59.3437C230.242 59.5311 185.116 78.1062 180.303 80.1159C176.936 81.5217 175.737 85.0045 175.737 87.7951C175.737 87.9991 175.731 88.2957 175.724 88.6791C175.339 108.535 179.924 157.396 230.563 183.108Z" fill="#3F3D56"/>
<path d="M228.998 55.1977C228.998 55.1977 183.462 73.9413 178.583 75.9786C173.704 78.016 171.264 82.9056 171.264 87.7953C171.264 92.6849 167.605 156.488 228.998 187.337C228.998 187.337 234.57 188.882 238.798 187.337C243.025 185.792 296.694 159.714 296.694 87.5915C296.694 87.5915 296.694 80.2571 288.156 76.1824C279.617 72.1077 238.337 55.1977 238.337 55.1977C238.337 55.1977 233.267 52.9566 228.998 55.1977Z" fill="#2563EB"/>
<path opacity="0.2" d="M233.877 69.8667V169.857C233.877 169.857 279.82 147.693 279.414 89.4253L233.877 69.8667Z" fill="black"/>
<path d="M432.489 277H11.5109C11.3754 277 11.2454 276.946 11.1496 276.85C11.0538 276.754 11 276.624 11 276.488C11 276.352 11.0538 276.222 11.1496 276.126C11.2454 276.03 11.3754 275.976 11.5109 275.976H432.489C432.625 275.976 432.755 276.03 432.85 276.126C432.946 276.222 433 276.352 433 276.488C433 276.624 432.946 276.754 432.85 276.85C432.755 276.946 432.625 277 432.489 277Z" fill="#CBCBCB"/>
</g>
<defs>
<clipPath id="clip0_47_289">
<rect width="422" height="277" fill="white" transform="translate(11)"/>
</clipPath>
</defs>
</svg>
