<svg width="50" height="50" viewBox="0 0 50 50" fill="none" xmlns="http://www.w3.org/2000/svg">
<path d="M14.5833 14.5833H14.6042M14.5833 6.25H25C26.0667 6.25 27.1333 6.65625 27.9458 7.47083L42.5292 22.0542C43.3103 22.8355 43.7491 23.8952 43.7491 25C43.7491 26.1049 43.3103 27.1645 42.5292 27.9458L27.9458 42.5292C27.1645 43.3103 26.1049 43.7491 25 43.7491C23.8952 43.7491 22.8355 43.3103 22.0542 42.5292L7.47084 27.9458C7.08334 27.5594 6.77602 27.1003 6.56651 26.5947C6.357 26.0892 6.24944 25.5472 6.25 25V14.5833C6.25 12.3732 7.12798 10.2536 8.69078 8.69078C10.2536 7.12797 12.3732 6.25 14.5833 6.25Z" stroke="#2563EB" stroke-width="3" stroke-linecap="round" stroke-linejoin="round"/>
</svg>
