<svg width="390" height="363" viewBox="0 0 390 363" fill="none" xmlns="http://www.w3.org/2000/svg">
<g filter="url(#filter0_dd_359_2273)">
<rect x="20" y="0.218262" width="350" height="322" rx="8" fill="#EFF6FF"/>
<path d="M121.645 96.9863C122.829 96.9863 123.864 97.2209 124.749 97.6903C125.635 98.1596 126.317 98.8209 126.797 99.6743C127.288 100.517 127.533 101.493 127.533 102.602C127.533 103.701 127.288 104.677 126.797 105.53C126.317 106.384 125.629 107.045 124.733 107.514C123.848 107.984 122.819 108.218 121.645 108.218H117.437V96.9863H121.645ZM121.469 105.85C122.504 105.85 123.309 105.568 123.885 105.002C124.461 104.437 124.749 103.637 124.749 102.602C124.749 101.568 124.461 100.762 123.885 100.186C123.309 99.6103 122.504 99.3223 121.469 99.3223H120.173V105.85H121.469ZM128.518 103.738C128.518 102.821 128.689 102.016 129.03 101.322C129.382 100.629 129.857 100.096 130.454 99.7223C131.052 99.3489 131.718 99.1623 132.454 99.1623C133.084 99.1623 133.633 99.2903 134.102 99.5463C134.582 99.8023 134.95 100.138 135.206 100.554V99.2903H137.942V108.218H135.206V106.954C134.94 107.37 134.566 107.706 134.086 107.962C133.617 108.218 133.068 108.346 132.438 108.346C131.713 108.346 131.052 108.16 130.454 107.786C129.857 107.402 129.382 106.864 129.03 106.17C128.689 105.466 128.518 104.656 128.518 103.738ZM135.206 103.754C135.206 103.072 135.014 102.533 134.63 102.138C134.257 101.744 133.798 101.546 133.254 101.546C132.71 101.546 132.246 101.744 131.862 102.138C131.489 102.522 131.302 103.056 131.302 103.738C131.302 104.421 131.489 104.965 131.862 105.37C132.246 105.765 132.71 105.962 133.254 105.962C133.798 105.962 134.257 105.765 134.63 105.37C135.014 104.976 135.206 104.437 135.206 103.754ZM142.658 100.778C142.978 100.288 143.378 99.9036 143.858 99.6263C144.338 99.3383 144.871 99.1943 145.458 99.1943V102.09H144.706C144.023 102.09 143.511 102.24 143.17 102.538C142.828 102.826 142.658 103.338 142.658 104.074V108.218H139.922V99.2903H142.658V100.778ZM149.501 96.3783V108.218H146.765V96.3783H149.501ZM159.9 103.61C159.9 103.866 159.884 104.133 159.852 104.41H153.66C153.703 104.965 153.879 105.392 154.188 105.69C154.508 105.978 154.898 106.122 155.356 106.122C156.039 106.122 156.514 105.834 156.78 105.258H159.692C159.543 105.845 159.271 106.373 158.876 106.842C158.492 107.312 158.007 107.68 157.42 107.946C156.834 108.213 156.178 108.346 155.452 108.346C154.578 108.346 153.799 108.16 153.116 107.786C152.434 107.413 151.9 106.88 151.516 106.186C151.132 105.493 150.94 104.682 150.94 103.754C150.94 102.826 151.127 102.016 151.5 101.322C151.884 100.629 152.418 100.096 153.1 99.7223C153.783 99.3489 154.567 99.1623 155.452 99.1623C156.316 99.1623 157.084 99.3436 157.756 99.7063C158.428 100.069 158.951 100.586 159.324 101.258C159.708 101.93 159.9 102.714 159.9 103.61ZM157.1 102.89C157.1 102.421 156.94 102.048 156.62 101.77C156.3 101.493 155.9 101.354 155.42 101.354C154.962 101.354 154.572 101.488 154.252 101.754C153.943 102.021 153.751 102.4 153.676 102.89H157.1ZM166.784 99.1943C167.829 99.1943 168.661 99.5356 169.28 100.218C169.909 100.89 170.224 101.818 170.224 103.002V108.218H167.504V103.37C167.504 102.773 167.349 102.309 167.04 101.978C166.73 101.648 166.314 101.482 165.792 101.482C165.269 101.482 164.853 101.648 164.544 101.978C164.234 102.309 164.08 102.773 164.08 103.37V108.218H161.344V99.2903H164.08V100.474C164.357 100.08 164.73 99.7703 165.2 99.5463C165.669 99.3116 166.197 99.1943 166.784 99.1943ZM180.541 103.61C180.541 103.866 180.525 104.133 180.493 104.41H174.301C174.343 104.965 174.519 105.392 174.829 105.69C175.149 105.978 175.538 106.122 175.997 106.122C176.679 106.122 177.154 105.834 177.421 105.258H180.333C180.183 105.845 179.911 106.373 179.517 106.842C179.133 107.312 178.647 107.68 178.061 107.946C177.474 108.213 176.818 108.346 176.093 108.346C175.218 108.346 174.439 108.16 173.757 107.786C173.074 107.413 172.541 106.88 172.157 106.186C171.773 105.493 171.581 104.682 171.581 103.754C171.581 102.826 171.767 102.016 172.141 101.322C172.525 100.629 173.058 100.096 173.741 99.7223C174.423 99.3489 175.207 99.1623 176.093 99.1623C176.957 99.1623 177.725 99.3436 178.397 99.7063C179.069 100.069 179.591 100.586 179.965 101.258C180.349 101.93 180.541 102.714 180.541 103.61ZM177.741 102.89C177.741 102.421 177.581 102.048 177.261 101.77C176.941 101.493 176.541 101.354 176.061 101.354C175.602 101.354 175.213 101.488 174.893 101.754C174.583 102.021 174.391 102.4 174.317 102.89H177.741ZM184.928 105.69L183.152 110.282H181.408L182.336 105.69H184.928ZM195.697 108.218L193.361 103.978H192.705V108.218H189.969V96.9863H194.561C195.446 96.9863 196.198 97.1409 196.817 97.4503C197.446 97.7596 197.915 98.1863 198.225 98.7303C198.534 99.2636 198.689 99.8609 198.689 100.522C198.689 101.269 198.475 101.936 198.049 102.522C197.633 103.109 197.014 103.525 196.193 103.77L198.785 108.218H195.697ZM192.705 102.042H194.401C194.902 102.042 195.275 101.92 195.521 101.674C195.777 101.429 195.905 101.082 195.905 100.634C195.905 100.208 195.777 99.8716 195.521 99.6263C195.275 99.3809 194.902 99.2583 194.401 99.2583H192.705V102.042ZM204.47 108.346C203.595 108.346 202.806 108.16 202.102 107.786C201.409 107.413 200.859 106.88 200.454 106.186C200.059 105.493 199.862 104.682 199.862 103.754C199.862 102.837 200.065 102.032 200.47 101.338C200.875 100.634 201.43 100.096 202.134 99.7223C202.838 99.3489 203.627 99.1623 204.502 99.1623C205.377 99.1623 206.166 99.3489 206.87 99.7223C207.574 100.096 208.129 100.634 208.534 101.338C208.939 102.032 209.142 102.837 209.142 103.754C209.142 104.672 208.934 105.482 208.518 106.186C208.113 106.88 207.553 107.413 206.838 107.786C206.134 108.16 205.345 108.346 204.47 108.346ZM204.47 105.978C204.993 105.978 205.435 105.786 205.798 105.402C206.171 105.018 206.358 104.469 206.358 103.754C206.358 103.04 206.177 102.49 205.814 102.106C205.462 101.722 205.025 101.53 204.502 101.53C203.969 101.53 203.526 101.722 203.174 102.106C202.822 102.48 202.646 103.029 202.646 103.754C202.646 104.469 202.817 105.018 203.158 105.402C203.51 105.786 203.947 105.978 204.47 105.978ZM213.33 100.554C213.586 100.138 213.954 99.8023 214.434 99.5463C214.914 99.2903 215.463 99.1623 216.082 99.1623C216.818 99.1623 217.484 99.3489 218.082 99.7223C218.679 100.096 219.148 100.629 219.49 101.322C219.842 102.016 220.018 102.821 220.018 103.738C220.018 104.656 219.842 105.466 219.49 106.17C219.148 106.864 218.679 107.402 218.082 107.786C217.484 108.16 216.818 108.346 216.082 108.346C215.452 108.346 214.903 108.224 214.434 107.978C213.964 107.722 213.596 107.386 213.33 106.97V108.218H210.594V96.3783H213.33V100.554ZM217.234 103.738C217.234 103.056 217.042 102.522 216.658 102.138C216.284 101.744 215.82 101.546 215.266 101.546C214.722 101.546 214.258 101.744 213.874 102.138C213.5 102.533 213.314 103.072 213.314 103.754C213.314 104.437 213.5 104.976 213.874 105.37C214.258 105.765 214.722 105.962 215.266 105.962C215.81 105.962 216.274 105.765 216.658 105.37C217.042 104.965 217.234 104.421 217.234 103.738ZM229.869 103.61C229.869 103.866 229.853 104.133 229.821 104.41H223.629C223.672 104.965 223.848 105.392 224.157 105.69C224.477 105.978 224.866 106.122 225.325 106.122C226.008 106.122 226.482 105.834 226.749 105.258H229.661C229.512 105.845 229.24 106.373 228.845 106.842C228.461 107.312 227.976 107.68 227.389 107.946C226.802 108.213 226.146 108.346 225.421 108.346C224.546 108.346 223.768 108.16 223.085 107.786C222.402 107.413 221.869 106.88 221.485 106.186C221.101 105.493 220.909 104.682 220.909 103.754C220.909 102.826 221.096 102.016 221.469 101.322C221.853 100.629 222.386 100.096 223.069 99.7223C223.752 99.3489 224.536 99.1623 225.421 99.1623C226.285 99.1623 227.053 99.3436 227.725 99.7063C228.397 100.069 228.92 100.586 229.293 101.258C229.677 101.93 229.869 102.714 229.869 103.61ZM227.069 102.89C227.069 102.421 226.909 102.048 226.589 101.77C226.269 101.493 225.869 101.354 225.389 101.354C224.93 101.354 224.541 101.488 224.221 101.754C223.912 102.021 223.72 102.4 223.645 102.89H227.069ZM234.048 100.778C234.368 100.288 234.768 99.9036 235.248 99.6263C235.728 99.3383 236.262 99.1943 236.848 99.1943V102.09H236.096C235.414 102.09 234.902 102.24 234.56 102.538C234.219 102.826 234.048 103.338 234.048 104.074V108.218H231.312V99.2903H234.048V100.778ZM243.132 105.898V108.218H241.74C240.748 108.218 239.975 107.978 239.42 107.498C238.865 107.008 238.588 106.213 238.588 105.114V101.562H237.5V99.2903H238.588V97.1143H241.324V99.2903H243.116V101.562H241.324V105.146C241.324 105.413 241.388 105.605 241.516 105.722C241.644 105.84 241.857 105.898 242.156 105.898H243.132ZM248.288 108.346C247.509 108.346 246.816 108.213 246.208 107.946C245.6 107.68 245.12 107.317 244.768 106.858C244.416 106.389 244.219 105.866 244.176 105.29H246.88C246.912 105.6 247.056 105.85 247.312 106.042C247.568 106.234 247.883 106.33 248.256 106.33C248.597 106.33 248.859 106.266 249.04 106.138C249.232 106 249.328 105.824 249.328 105.61C249.328 105.354 249.195 105.168 248.928 105.05C248.661 104.922 248.229 104.784 247.632 104.634C246.992 104.485 246.459 104.33 246.032 104.17C245.605 104 245.237 103.738 244.928 103.386C244.619 103.024 244.464 102.538 244.464 101.93C244.464 101.418 244.603 100.954 244.88 100.538C245.168 100.112 245.584 99.7756 246.128 99.5303C246.683 99.2849 247.339 99.1623 248.096 99.1623C249.216 99.1623 250.096 99.4396 250.736 99.9943C251.387 100.549 251.76 101.285 251.856 102.202H249.328C249.285 101.893 249.147 101.648 248.912 101.466C248.688 101.285 248.389 101.194 248.016 101.194C247.696 101.194 247.451 101.258 247.28 101.386C247.109 101.504 247.024 101.669 247.024 101.882C247.024 102.138 247.157 102.33 247.424 102.458C247.701 102.586 248.128 102.714 248.704 102.842C249.365 103.013 249.904 103.184 250.32 103.354C250.736 103.514 251.099 103.781 251.408 104.154C251.728 104.517 251.893 105.008 251.904 105.626C251.904 106.149 251.755 106.618 251.456 107.034C251.168 107.44 250.747 107.76 250.192 107.994C249.648 108.229 249.013 108.346 248.288 108.346ZM257.642 108.346C256.767 108.346 255.978 108.16 255.274 107.786C254.581 107.413 254.031 106.88 253.626 106.186C253.231 105.493 253.034 104.682 253.034 103.754C253.034 102.837 253.237 102.032 253.642 101.338C254.047 100.634 254.602 100.096 255.306 99.7223C256.01 99.3489 256.799 99.1623 257.674 99.1623C258.549 99.1623 259.338 99.3489 260.042 99.7223C260.746 100.096 261.301 100.634 261.706 101.338C262.111 102.032 262.314 102.837 262.314 103.754C262.314 104.672 262.106 105.482 261.69 106.186C261.285 106.88 260.725 107.413 260.01 107.786C259.306 108.16 258.517 108.346 257.642 108.346ZM257.642 105.978C258.165 105.978 258.607 105.786 258.97 105.402C259.343 105.018 259.53 104.469 259.53 103.754C259.53 103.04 259.349 102.49 258.986 102.106C258.634 101.722 258.197 101.53 257.674 101.53C257.141 101.53 256.698 101.722 256.346 102.106C255.994 102.48 255.818 103.029 255.818 103.754C255.818 104.469 255.989 105.018 256.33 105.402C256.682 105.786 257.119 105.978 257.642 105.978ZM269.205 99.1943C270.251 99.1943 271.083 99.5356 271.701 100.218C272.331 100.89 272.645 101.818 272.645 103.002V108.218H269.925V103.37C269.925 102.773 269.771 102.309 269.461 101.978C269.152 101.648 268.736 101.482 268.213 101.482C267.691 101.482 267.275 101.648 266.965 101.978C266.656 102.309 266.501 102.773 266.501 103.37V108.218H263.765V99.2903H266.501V100.474C266.779 100.08 267.152 99.7703 267.621 99.5463C268.091 99.3116 268.619 99.1943 269.205 99.1943Z" fill="#1F2937"/>
<path d="M88.3052 147.034H92.2092V148.218H86.8492V137.066H88.3052V147.034ZM97.5794 148.362C96.7581 148.362 96.0114 148.176 95.3394 147.802C94.6781 147.429 94.1554 146.901 93.7714 146.218C93.3981 145.525 93.2114 144.725 93.2114 143.818C93.2114 142.922 93.4034 142.133 93.7874 141.45C94.1821 140.757 94.7154 140.229 95.3874 139.866C96.0594 139.493 96.8114 139.306 97.6434 139.306C98.4754 139.306 99.2274 139.493 99.8994 139.866C100.571 140.229 101.099 140.752 101.483 141.434C101.878 142.117 102.075 142.912 102.075 143.818C102.075 144.725 101.873 145.525 101.467 146.218C101.073 146.901 100.534 147.429 99.8514 147.802C99.1688 148.176 98.4114 148.362 97.5794 148.362ZM97.5794 147.082C98.1021 147.082 98.5928 146.96 99.0514 146.714C99.5101 146.469 99.8781 146.101 100.155 145.61C100.443 145.12 100.587 144.522 100.587 143.818C100.587 143.114 100.449 142.517 100.171 142.026C99.8941 141.536 99.5314 141.173 99.0834 140.938C98.6354 140.693 98.1501 140.57 97.6274 140.57C97.0941 140.57 96.6034 140.693 96.1554 140.938C95.7181 141.173 95.3661 141.536 95.0994 142.026C94.8328 142.517 94.6994 143.114 94.6994 143.818C94.6994 144.533 94.8274 145.136 95.0834 145.626C95.3501 146.117 95.7021 146.485 96.1394 146.73C96.5768 146.965 97.0568 147.082 97.5794 147.082ZM105.446 140.874C105.702 140.373 106.064 139.984 106.534 139.706C107.014 139.429 107.595 139.29 108.278 139.29V140.794H107.894C106.262 140.794 105.446 141.68 105.446 143.45V148.218H103.99V139.45H105.446V140.874ZM117.959 143.498C117.959 143.776 117.943 144.069 117.911 144.378H110.903C110.956 145.242 111.249 145.92 111.783 146.41C112.327 146.89 112.983 147.13 113.751 147.13C114.38 147.13 114.903 146.986 115.319 146.698C115.745 146.4 116.044 146.005 116.215 145.514H117.783C117.548 146.357 117.079 147.045 116.375 147.578C115.671 148.101 114.796 148.362 113.751 148.362C112.919 148.362 112.172 148.176 111.511 147.802C110.86 147.429 110.348 146.901 109.975 146.218C109.601 145.525 109.415 144.725 109.415 143.818C109.415 142.912 109.596 142.117 109.959 141.434C110.321 140.752 110.828 140.229 111.479 139.866C112.14 139.493 112.897 139.306 113.751 139.306C114.583 139.306 115.319 139.488 115.959 139.85C116.599 140.213 117.089 140.714 117.431 141.354C117.783 141.984 117.959 142.698 117.959 143.498ZM116.455 143.194C116.455 142.64 116.332 142.165 116.087 141.77C115.841 141.365 115.505 141.061 115.079 140.858C114.663 140.645 114.199 140.538 113.687 140.538C112.951 140.538 112.321 140.773 111.799 141.242C111.287 141.712 110.993 142.362 110.919 143.194H116.455ZM130.424 139.29C131.107 139.29 131.715 139.434 132.248 139.722C132.782 140 133.203 140.421 133.512 140.986C133.822 141.552 133.976 142.24 133.976 143.05V148.218H132.536V143.258C132.536 142.384 132.318 141.717 131.88 141.258C131.454 140.789 130.872 140.554 130.136 140.554C129.379 140.554 128.776 140.8 128.328 141.29C127.88 141.77 127.656 142.469 127.656 143.386V148.218H126.216V143.258C126.216 142.384 125.998 141.717 125.56 141.258C125.134 140.789 124.552 140.554 123.816 140.554C123.059 140.554 122.456 140.8 122.008 141.29C121.56 141.77 121.336 142.469 121.336 143.386V148.218H119.88V139.45H121.336V140.714C121.624 140.256 122.008 139.904 122.488 139.658C122.979 139.413 123.518 139.29 124.104 139.29C124.84 139.29 125.491 139.456 126.056 139.786C126.622 140.117 127.043 140.602 127.32 141.242C127.566 140.624 127.971 140.144 128.536 139.802C129.102 139.461 129.731 139.29 130.424 139.29ZM141.382 138.026C141.105 138.026 140.87 137.93 140.678 137.738C140.486 137.546 140.39 137.312 140.39 137.034C140.39 136.757 140.486 136.522 140.678 136.33C140.87 136.138 141.105 136.042 141.382 136.042C141.649 136.042 141.873 136.138 142.054 136.33C142.246 136.522 142.342 136.757 142.342 137.034C142.342 137.312 142.246 137.546 142.054 137.738C141.873 137.93 141.649 138.026 141.382 138.026ZM142.086 139.45V148.218H140.63V139.45H142.086ZM146.024 141.066C146.312 140.565 146.739 140.149 147.304 139.818C147.88 139.477 148.547 139.306 149.304 139.306C150.083 139.306 150.787 139.493 151.416 139.866C152.056 140.24 152.557 140.768 152.92 141.45C153.283 142.122 153.464 142.906 153.464 143.802C153.464 144.688 153.283 145.477 152.92 146.17C152.557 146.864 152.056 147.402 151.416 147.786C150.787 148.17 150.083 148.362 149.304 148.362C148.557 148.362 147.896 148.197 147.32 147.866C146.755 147.525 146.323 147.104 146.024 146.602V152.378H144.568V139.45H146.024V141.066ZM151.976 143.802C151.976 143.141 151.843 142.565 151.576 142.074C151.309 141.584 150.947 141.21 150.488 140.954C150.04 140.698 149.544 140.57 149 140.57C148.467 140.57 147.971 140.704 147.512 140.97C147.064 141.226 146.701 141.605 146.424 142.106C146.157 142.597 146.024 143.168 146.024 143.818C146.024 144.48 146.157 145.061 146.424 145.562C146.701 146.053 147.064 146.432 147.512 146.698C147.971 146.954 148.467 147.082 149 147.082C149.544 147.082 150.04 146.954 150.488 146.698C150.947 146.432 151.309 146.053 151.576 145.562C151.843 145.061 151.976 144.474 151.976 143.802ZM158.484 148.362C157.812 148.362 157.21 148.25 156.676 148.026C156.143 147.792 155.722 147.472 155.412 147.066C155.103 146.65 154.932 146.176 154.9 145.642H156.404C156.447 146.08 156.65 146.437 157.012 146.714C157.386 146.992 157.871 147.13 158.468 147.13C159.023 147.13 159.46 147.008 159.78 146.762C160.1 146.517 160.26 146.208 160.26 145.834C160.26 145.45 160.09 145.168 159.748 144.986C159.407 144.794 158.879 144.608 158.164 144.426C157.514 144.256 156.98 144.085 156.564 143.914C156.159 143.733 155.807 143.472 155.508 143.13C155.22 142.778 155.076 142.32 155.076 141.754C155.076 141.306 155.21 140.896 155.476 140.522C155.743 140.149 156.122 139.856 156.612 139.642C157.103 139.418 157.663 139.306 158.292 139.306C159.263 139.306 160.047 139.552 160.644 140.042C161.242 140.533 161.562 141.205 161.604 142.058H160.148C160.116 141.6 159.93 141.232 159.588 140.954C159.258 140.677 158.81 140.538 158.244 140.538C157.722 140.538 157.306 140.65 156.996 140.874C156.687 141.098 156.532 141.392 156.532 141.754C156.532 142.042 156.623 142.282 156.804 142.474C156.996 142.656 157.231 142.805 157.508 142.922C157.796 143.029 158.191 143.152 158.692 143.29C159.322 143.461 159.834 143.632 160.228 143.802C160.623 143.962 160.959 144.208 161.236 144.538C161.524 144.869 161.674 145.301 161.684 145.834C161.684 146.314 161.551 146.746 161.284 147.13C161.018 147.514 160.639 147.818 160.148 148.042C159.668 148.256 159.114 148.362 158.484 148.362ZM171.516 139.45V148.218H170.06V146.922C169.782 147.37 169.393 147.722 168.892 147.978C168.401 148.224 167.857 148.346 167.26 148.346C166.577 148.346 165.964 148.208 165.42 147.93C164.876 147.642 164.444 147.216 164.124 146.65C163.814 146.085 163.66 145.397 163.66 144.586V139.45H165.1V144.394C165.1 145.258 165.318 145.925 165.756 146.394C166.193 146.853 166.79 147.082 167.548 147.082C168.326 147.082 168.94 146.842 169.388 146.362C169.836 145.882 170.06 145.184 170.06 144.266V139.45H171.516ZM184.518 139.29C185.201 139.29 185.809 139.434 186.342 139.722C186.876 140 187.297 140.421 187.606 140.986C187.916 141.552 188.07 142.24 188.07 143.05V148.218H186.63V143.258C186.63 142.384 186.412 141.717 185.974 141.258C185.548 140.789 184.966 140.554 184.23 140.554C183.473 140.554 182.87 140.8 182.422 141.29C181.974 141.77 181.75 142.469 181.75 143.386V148.218H180.31V143.258C180.31 142.384 180.092 141.717 179.654 141.258C179.228 140.789 178.646 140.554 177.91 140.554C177.153 140.554 176.55 140.8 176.102 141.29C175.654 141.77 175.43 142.469 175.43 143.386V148.218H173.974V139.45H175.43V140.714C175.718 140.256 176.102 139.904 176.582 139.658C177.073 139.413 177.612 139.29 178.198 139.29C178.934 139.29 179.585 139.456 180.15 139.786C180.716 140.117 181.137 140.602 181.414 141.242C181.66 140.624 182.065 140.144 182.63 139.802C183.196 139.461 183.825 139.29 184.518 139.29ZM194.18 143.802C194.18 142.906 194.362 142.122 194.724 141.45C195.087 140.768 195.583 140.24 196.212 139.866C196.852 139.493 197.567 139.306 198.356 139.306C199.039 139.306 199.674 139.466 200.26 139.786C200.847 140.096 201.295 140.506 201.604 141.018V136.378H203.076V148.218H201.604V146.57C201.316 147.093 200.89 147.525 200.324 147.866C199.759 148.197 199.098 148.362 198.34 148.362C197.562 148.362 196.852 148.17 196.212 147.786C195.583 147.402 195.087 146.864 194.724 146.17C194.362 145.477 194.18 144.688 194.18 143.802ZM201.604 143.818C201.604 143.157 201.471 142.581 201.204 142.09C200.938 141.6 200.575 141.226 200.116 140.97C199.668 140.704 199.172 140.57 198.628 140.57C198.084 140.57 197.588 140.698 197.14 140.954C196.692 141.21 196.335 141.584 196.068 142.074C195.802 142.565 195.668 143.141 195.668 143.802C195.668 144.474 195.802 145.061 196.068 145.562C196.335 146.053 196.692 146.432 197.14 146.698C197.588 146.954 198.084 147.082 198.628 147.082C199.172 147.082 199.668 146.954 200.116 146.698C200.575 146.432 200.938 146.053 201.204 145.562C201.471 145.061 201.604 144.48 201.604 143.818ZM209.361 148.362C208.539 148.362 207.793 148.176 207.121 147.802C206.459 147.429 205.937 146.901 205.553 146.218C205.179 145.525 204.993 144.725 204.993 143.818C204.993 142.922 205.185 142.133 205.569 141.45C205.963 140.757 206.497 140.229 207.169 139.866C207.841 139.493 208.593 139.306 209.425 139.306C210.257 139.306 211.009 139.493 211.681 139.866C212.353 140.229 212.881 140.752 213.265 141.434C213.659 142.117 213.857 142.912 213.857 143.818C213.857 144.725 213.654 145.525 213.249 146.218C212.854 146.901 212.315 147.429 211.633 147.802C210.95 148.176 210.193 148.362 209.361 148.362ZM209.361 147.082C209.883 147.082 210.374 146.96 210.833 146.714C211.291 146.469 211.659 146.101 211.937 145.61C212.225 145.12 212.369 144.522 212.369 143.818C212.369 143.114 212.23 142.517 211.953 142.026C211.675 141.536 211.313 141.173 210.865 140.938C210.417 140.693 209.931 140.57 209.409 140.57C208.875 140.57 208.385 140.693 207.937 140.938C207.499 141.173 207.147 141.536 206.881 142.026C206.614 142.517 206.481 143.114 206.481 143.818C206.481 144.533 206.609 145.136 206.865 145.626C207.131 146.117 207.483 146.485 207.921 146.73C208.358 146.965 208.838 147.082 209.361 147.082ZM217.227 136.378V148.218H215.771V136.378H217.227ZM223.533 148.362C222.711 148.362 221.965 148.176 221.293 147.802C220.631 147.429 220.109 146.901 219.725 146.218C219.351 145.525 219.165 144.725 219.165 143.818C219.165 142.922 219.357 142.133 219.741 141.45C220.135 140.757 220.669 140.229 221.341 139.866C222.013 139.493 222.765 139.306 223.597 139.306C224.429 139.306 225.181 139.493 225.853 139.866C226.525 140.229 227.053 140.752 227.437 141.434C227.831 142.117 228.029 142.912 228.029 143.818C228.029 144.725 227.826 145.525 227.421 146.218C227.026 146.901 226.487 147.429 225.805 147.802C225.122 148.176 224.365 148.362 223.533 148.362ZM223.533 147.082C224.055 147.082 224.546 146.96 225.005 146.714C225.463 146.469 225.831 146.101 226.109 145.61C226.397 145.12 226.541 144.522 226.541 143.818C226.541 143.114 226.402 142.517 226.125 142.026C225.847 141.536 225.485 141.173 225.037 140.938C224.589 140.693 224.103 140.57 223.581 140.57C223.047 140.57 222.557 140.693 222.109 140.938C221.671 141.173 221.319 141.536 221.053 142.026C220.786 142.517 220.653 143.114 220.653 143.818C220.653 144.533 220.781 145.136 221.037 145.626C221.303 146.117 221.655 146.485 222.093 146.73C222.53 146.965 223.01 147.082 223.533 147.082ZM231.399 140.874C231.655 140.373 232.018 139.984 232.487 139.706C232.967 139.429 233.548 139.29 234.231 139.29V140.794H233.847C232.215 140.794 231.399 141.68 231.399 143.45V148.218H229.943V139.45H231.399V140.874ZM243.281 148.362C242.609 148.362 242.007 148.25 241.473 148.026C240.94 147.792 240.519 147.472 240.209 147.066C239.9 146.65 239.729 146.176 239.697 145.642H241.201C241.244 146.08 241.447 146.437 241.809 146.714C242.183 146.992 242.668 147.13 243.265 147.13C243.82 147.13 244.257 147.008 244.577 146.762C244.897 146.517 245.057 146.208 245.057 145.834C245.057 145.45 244.887 145.168 244.545 144.986C244.204 144.794 243.676 144.608 242.961 144.426C242.311 144.256 241.777 144.085 241.361 143.914C240.956 143.733 240.604 143.472 240.305 143.13C240.017 142.778 239.873 142.32 239.873 141.754C239.873 141.306 240.007 140.896 240.273 140.522C240.54 140.149 240.919 139.856 241.409 139.642C241.9 139.418 242.46 139.306 243.089 139.306C244.06 139.306 244.844 139.552 245.441 140.042C246.039 140.533 246.359 141.205 246.401 142.058H244.945C244.913 141.6 244.727 141.232 244.385 140.954C244.055 140.677 243.607 140.538 243.041 140.538C242.519 140.538 242.103 140.65 241.793 140.874C241.484 141.098 241.329 141.392 241.329 141.754C241.329 142.042 241.42 142.282 241.601 142.474C241.793 142.656 242.028 142.805 242.305 142.922C242.593 143.029 242.988 143.152 243.489 143.29C244.119 143.461 244.631 143.632 245.025 143.802C245.42 143.962 245.756 144.208 246.033 144.538C246.321 144.869 246.471 145.301 246.481 145.834C246.481 146.314 246.348 146.746 246.081 147.13C245.815 147.514 245.436 147.818 244.945 148.042C244.465 148.256 243.911 148.362 243.281 148.362ZM249.289 138.026C249.011 138.026 248.777 137.93 248.585 137.738C248.393 137.546 248.297 137.312 248.297 137.034C248.297 136.757 248.393 136.522 248.585 136.33C248.777 136.138 249.011 136.042 249.289 136.042C249.555 136.042 249.779 136.138 249.961 136.33C250.153 136.522 250.249 136.757 250.249 137.034C250.249 137.312 250.153 137.546 249.961 137.738C249.779 137.93 249.555 138.026 249.289 138.026ZM249.993 139.45V148.218H248.537V139.45H249.993ZM254.25 140.65V145.818C254.25 146.245 254.341 146.549 254.522 146.73C254.704 146.901 255.018 146.986 255.466 146.986H256.538V148.218H255.226C254.416 148.218 253.808 148.032 253.402 147.658C252.997 147.285 252.794 146.672 252.794 145.818V140.65H251.658V139.45H252.794V137.242H254.25V139.45H256.538V140.65H254.25ZM262.024 143.802C262.024 142.906 262.205 142.122 262.568 141.45C262.931 140.768 263.427 140.24 264.056 139.866C264.696 139.493 265.405 139.306 266.184 139.306C266.952 139.306 267.619 139.472 268.184 139.802C268.749 140.133 269.171 140.549 269.448 141.05V139.45H270.92V148.218H269.448V146.586C269.16 147.098 268.728 147.525 268.152 147.866C267.587 148.197 266.925 148.362 266.168 148.362C265.389 148.362 264.685 148.17 264.056 147.786C263.427 147.402 262.931 146.864 262.568 146.17C262.205 145.477 262.024 144.688 262.024 143.802ZM269.448 143.818C269.448 143.157 269.315 142.581 269.048 142.09C268.781 141.6 268.419 141.226 267.96 140.97C267.512 140.704 267.016 140.57 266.472 140.57C265.928 140.57 265.432 140.698 264.984 140.954C264.536 141.21 264.179 141.584 263.912 142.074C263.645 142.565 263.512 143.141 263.512 143.802C263.512 144.474 263.645 145.061 263.912 145.562C264.179 146.053 264.536 146.432 264.984 146.698C265.432 146.954 265.928 147.082 266.472 147.082C267.016 147.082 267.512 146.954 267.96 146.698C268.419 146.432 268.781 146.053 269.048 145.562C269.315 145.061 269.448 144.48 269.448 143.818ZM283.924 139.29C284.607 139.29 285.215 139.434 285.748 139.722C286.282 140 286.703 140.421 287.012 140.986C287.322 141.552 287.476 142.24 287.476 143.05V148.218H286.036V143.258C286.036 142.384 285.818 141.717 285.38 141.258C284.954 140.789 284.372 140.554 283.636 140.554C282.879 140.554 282.276 140.8 281.828 141.29C281.38 141.77 281.156 142.469 281.156 143.386V148.218H279.716V143.258C279.716 142.384 279.498 141.717 279.06 141.258C278.634 140.789 278.052 140.554 277.316 140.554C276.559 140.554 275.956 140.8 275.508 141.29C275.06 141.77 274.836 142.469 274.836 143.386V148.218H273.38V139.45H274.836V140.714C275.124 140.256 275.508 139.904 275.988 139.658C276.479 139.413 277.018 139.29 277.604 139.29C278.34 139.29 278.991 139.456 279.556 139.786C280.122 140.117 280.543 140.602 280.82 141.242C281.066 140.624 281.471 140.144 282.036 139.802C282.602 139.461 283.231 139.29 283.924 139.29ZM297.865 143.498C297.865 143.776 297.849 144.069 297.817 144.378H290.809C290.862 145.242 291.155 145.92 291.689 146.41C292.233 146.89 292.889 147.13 293.657 147.13C294.286 147.13 294.809 146.986 295.225 146.698C295.651 146.4 295.95 146.005 296.121 145.514H297.689C297.454 146.357 296.985 147.045 296.281 147.578C295.577 148.101 294.702 148.362 293.657 148.362C292.825 148.362 292.078 148.176 291.417 147.802C290.766 147.429 290.254 146.901 289.881 146.218C289.507 145.525 289.321 144.725 289.321 143.818C289.321 142.912 289.502 142.117 289.865 141.434C290.227 140.752 290.734 140.229 291.385 139.866C292.046 139.493 292.803 139.306 293.657 139.306C294.489 139.306 295.225 139.488 295.865 139.85C296.505 140.213 296.995 140.714 297.337 141.354C297.689 141.984 297.865 142.698 297.865 143.498ZM296.361 143.194C296.361 142.64 296.238 142.165 295.993 141.77C295.747 141.365 295.411 141.061 294.985 140.858C294.569 140.645 294.105 140.538 293.593 140.538C292.857 140.538 292.227 140.773 291.705 141.242C291.193 141.712 290.899 142.362 290.825 143.194H296.361ZM301.563 140.65V145.818C301.563 146.245 301.653 146.549 301.835 146.73C302.016 146.901 302.331 146.986 302.779 146.986H303.851V148.218H302.539C301.728 148.218 301.12 148.032 300.715 147.658C300.309 147.285 300.107 146.672 300.107 145.818V140.65H298.971V139.45H300.107V137.242H301.563V139.45H303.851V140.65H301.563ZM65.5239 167.818C65.5239 166.912 65.7053 166.122 66.0679 165.45C66.4306 164.768 66.9319 164.24 67.5719 163.866C68.2226 163.493 68.9639 163.306 69.7959 163.306C70.8733 163.306 71.7586 163.568 72.4519 164.09C73.1559 164.613 73.6199 165.338 73.8439 166.266H72.2759C72.1266 165.733 71.8333 165.312 71.3959 165.002C70.9693 164.693 70.4359 164.538 69.7959 164.538C68.9639 164.538 68.2919 164.826 67.7799 165.402C67.2679 165.968 67.0119 166.773 67.0119 167.818C67.0119 168.874 67.2679 169.69 67.7799 170.266C68.2919 170.842 68.9639 171.13 69.7959 171.13C70.4359 171.13 70.9693 170.981 71.3959 170.682C71.8226 170.384 72.1159 169.957 72.2759 169.402H73.8439C73.6093 170.298 73.1399 171.018 72.4359 171.562C71.7319 172.096 70.8519 172.362 69.7959 172.362C68.9639 172.362 68.2226 172.176 67.5719 171.802C66.9319 171.429 66.4306 170.901 66.0679 170.218C65.7053 169.536 65.5239 168.736 65.5239 167.818ZM79.6107 172.362C78.7894 172.362 78.0427 172.176 77.3707 171.802C76.7094 171.429 76.1867 170.901 75.8027 170.218C75.4294 169.525 75.2427 168.725 75.2427 167.818C75.2427 166.922 75.4347 166.133 75.8187 165.45C76.2134 164.757 76.7467 164.229 77.4187 163.866C78.0907 163.493 78.8427 163.306 79.6747 163.306C80.5067 163.306 81.2587 163.493 81.9307 163.866C82.6027 164.229 83.1307 164.752 83.5147 165.434C83.9094 166.117 84.1067 166.912 84.1067 167.818C84.1067 168.725 83.904 169.525 83.4987 170.218C83.104 170.901 82.5654 171.429 81.8827 171.802C81.2 172.176 80.4427 172.362 79.6107 172.362ZM79.6107 171.082C80.1334 171.082 80.624 170.96 81.0827 170.714C81.5414 170.469 81.9094 170.101 82.1867 169.61C82.4747 169.12 82.6187 168.522 82.6187 167.818C82.6187 167.114 82.48 166.517 82.2027 166.026C81.9254 165.536 81.5627 165.173 81.1147 164.938C80.6667 164.693 80.1814 164.57 79.6587 164.57C79.1254 164.57 78.6347 164.693 78.1867 164.938C77.7494 165.173 77.3974 165.536 77.1307 166.026C76.864 166.517 76.7307 167.114 76.7307 167.818C76.7307 168.533 76.8587 169.136 77.1147 169.626C77.3814 170.117 77.7334 170.485 78.1707 170.73C78.608 170.965 79.088 171.082 79.6107 171.082ZM90.2931 163.29C91.3597 163.29 92.2237 163.616 92.8851 164.266C93.5464 164.906 93.8771 165.834 93.8771 167.05V172.218H92.4371V167.258C92.4371 166.384 92.2184 165.717 91.7811 165.258C91.3437 164.789 90.7464 164.554 89.9891 164.554C89.2211 164.554 88.6077 164.794 88.1491 165.274C87.7011 165.754 87.4771 166.453 87.4771 167.37V172.218H86.0211V163.45H87.4771V164.698C87.7651 164.25 88.1544 163.904 88.6451 163.658C89.1464 163.413 89.6957 163.29 90.2931 163.29ZM99.3594 172.362C98.6874 172.362 98.0848 172.25 97.5514 172.026C97.0181 171.792 96.5968 171.472 96.2874 171.066C95.9781 170.65 95.8074 170.176 95.7754 169.642H97.2794C97.3221 170.08 97.5248 170.437 97.8874 170.714C98.2608 170.992 98.7461 171.13 99.3434 171.13C99.8981 171.13 100.335 171.008 100.655 170.762C100.975 170.517 101.135 170.208 101.135 169.834C101.135 169.45 100.965 169.168 100.623 168.986C100.282 168.794 99.7541 168.608 99.0394 168.426C98.3888 168.256 97.8554 168.085 97.4394 167.914C97.0341 167.733 96.6821 167.472 96.3834 167.13C96.0954 166.778 95.9514 166.32 95.9514 165.754C95.9514 165.306 96.0848 164.896 96.3514 164.522C96.6181 164.149 96.9968 163.856 97.4874 163.642C97.9781 163.418 98.5381 163.306 99.1674 163.306C100.138 163.306 100.922 163.552 101.519 164.042C102.117 164.533 102.437 165.205 102.479 166.058H101.023C100.991 165.6 100.805 165.232 100.463 164.954C100.133 164.677 99.6848 164.538 99.1194 164.538C98.5968 164.538 98.1808 164.65 97.8714 164.874C97.5621 165.098 97.4074 165.392 97.4074 165.754C97.4074 166.042 97.4981 166.282 97.6794 166.474C97.8714 166.656 98.1061 166.805 98.3834 166.922C98.6714 167.029 99.0661 167.152 99.5674 167.29C100.197 167.461 100.709 167.632 101.103 167.802C101.498 167.962 101.834 168.208 102.111 168.538C102.399 168.869 102.549 169.301 102.559 169.834C102.559 170.314 102.426 170.746 102.159 171.13C101.893 171.514 101.514 171.818 101.023 172.042C100.543 172.256 99.9888 172.362 99.3594 172.362ZM112.615 167.498C112.615 167.776 112.599 168.069 112.567 168.378H105.559C105.612 169.242 105.905 169.92 106.439 170.41C106.983 170.89 107.639 171.13 108.407 171.13C109.036 171.13 109.559 170.986 109.975 170.698C110.401 170.4 110.7 170.005 110.871 169.514H112.439C112.204 170.357 111.735 171.045 111.031 171.578C110.327 172.101 109.452 172.362 108.407 172.362C107.575 172.362 106.828 172.176 106.167 171.802C105.516 171.429 105.004 170.901 104.631 170.218C104.257 169.525 104.071 168.725 104.071 167.818C104.071 166.912 104.252 166.117 104.615 165.434C104.977 164.752 105.484 164.229 106.135 163.866C106.796 163.493 107.553 163.306 108.407 163.306C109.239 163.306 109.975 163.488 110.615 163.85C111.255 164.213 111.745 164.714 112.087 165.354C112.439 165.984 112.615 166.698 112.615 167.498ZM111.111 167.194C111.111 166.64 110.988 166.165 110.743 165.77C110.497 165.365 110.161 165.061 109.735 164.858C109.319 164.645 108.855 164.538 108.343 164.538C107.607 164.538 106.977 164.773 106.455 165.242C105.943 165.712 105.649 166.362 105.575 167.194H111.111ZM113.993 167.818C113.993 166.912 114.174 166.122 114.537 165.45C114.899 164.768 115.401 164.24 116.041 163.866C116.691 163.493 117.433 163.306 118.265 163.306C119.342 163.306 120.227 163.568 120.921 164.09C121.625 164.613 122.089 165.338 122.313 166.266H120.745C120.595 165.733 120.302 165.312 119.865 165.002C119.438 164.693 118.905 164.538 118.265 164.538C117.433 164.538 116.761 164.826 116.249 165.402C115.737 165.968 115.481 166.773 115.481 167.818C115.481 168.874 115.737 169.69 116.249 170.266C116.761 170.842 117.433 171.13 118.265 171.13C118.905 171.13 119.438 170.981 119.865 170.682C120.291 170.384 120.585 169.957 120.745 169.402H122.313C122.078 170.298 121.609 171.018 120.905 171.562C120.201 172.096 119.321 172.362 118.265 172.362C117.433 172.362 116.691 172.176 116.041 171.802C115.401 171.429 114.899 170.901 114.537 170.218C114.174 169.536 113.993 168.736 113.993 167.818ZM126.031 164.65V169.818C126.031 170.245 126.122 170.549 126.303 170.73C126.485 170.901 126.799 170.986 127.247 170.986H128.319V172.218H127.007C126.197 172.218 125.589 172.032 125.183 171.658C124.778 171.285 124.575 170.672 124.575 169.818V164.65H123.439V163.45H124.575V161.242H126.031V163.45H128.319V164.65H126.031ZM138.084 167.498C138.084 167.776 138.068 168.069 138.036 168.378H131.028C131.081 169.242 131.374 169.92 131.908 170.41C132.452 170.89 133.108 171.13 133.876 171.13C134.505 171.13 135.028 170.986 135.444 170.698C135.87 170.4 136.169 170.005 136.34 169.514H137.908C137.673 170.357 137.204 171.045 136.5 171.578C135.796 172.101 134.921 172.362 133.876 172.362C133.044 172.362 132.297 172.176 131.636 171.802C130.985 171.429 130.473 170.901 130.1 170.218C129.726 169.525 129.54 168.725 129.54 167.818C129.54 166.912 129.721 166.117 130.084 165.434C130.446 164.752 130.953 164.229 131.604 163.866C132.265 163.493 133.022 163.306 133.876 163.306C134.708 163.306 135.444 163.488 136.084 163.85C136.724 164.213 137.214 164.714 137.556 165.354C137.908 165.984 138.084 166.698 138.084 167.498ZM136.58 167.194C136.58 166.64 136.457 166.165 136.212 165.77C135.966 165.365 135.63 165.061 135.204 164.858C134.788 164.645 134.324 164.538 133.812 164.538C133.076 164.538 132.446 164.773 131.924 165.242C131.412 165.712 131.118 166.362 131.044 167.194H136.58ZM141.781 164.65V169.818C141.781 170.245 141.872 170.549 142.053 170.73C142.235 170.901 142.549 170.986 142.997 170.986H144.069V172.218H142.757C141.947 172.218 141.339 172.032 140.933 171.658C140.528 171.285 140.325 170.672 140.325 169.818V164.65H139.189V163.45H140.325V161.242H141.781V163.45H144.069V164.65H141.781ZM153.61 163.45V172.218H152.154V170.922C151.876 171.37 151.487 171.722 150.986 171.978C150.495 172.224 149.951 172.346 149.354 172.346C148.671 172.346 148.058 172.208 147.514 171.93C146.97 171.642 146.538 171.216 146.218 170.65C145.908 170.085 145.754 169.397 145.754 168.586V163.45H147.194V168.394C147.194 169.258 147.412 169.925 147.85 170.394C148.287 170.853 148.884 171.082 149.642 171.082C150.42 171.082 151.034 170.842 151.482 170.362C151.93 169.882 152.154 169.184 152.154 168.266V163.45H153.61ZM157.524 164.874C157.78 164.373 158.143 163.984 158.612 163.706C159.092 163.429 159.673 163.29 160.356 163.29V164.794H159.972C158.34 164.794 157.524 165.68 157.524 167.45V172.218H156.068V163.45H157.524V164.874ZM162.501 172.314C162.223 172.314 161.989 172.218 161.797 172.026C161.605 171.834 161.509 171.6 161.509 171.322C161.509 171.045 161.605 170.81 161.797 170.618C161.989 170.426 162.223 170.33 162.501 170.33C162.767 170.33 162.991 170.426 163.173 170.618C163.365 170.81 163.461 171.045 163.461 171.322C163.461 171.6 163.365 171.834 163.173 172.026C162.991 172.218 162.767 172.314 162.501 172.314ZM171.118 162.25V165.978H175.182V167.178H171.118V171.018H175.662V172.218H169.662V161.05H175.662V162.25H171.118ZM185.641 163.45V172.218H184.185V170.922C183.907 171.37 183.518 171.722 183.017 171.978C182.526 172.224 181.982 172.346 181.385 172.346C180.702 172.346 180.089 172.208 179.545 171.93C179.001 171.642 178.569 171.216 178.249 170.65C177.939 170.085 177.785 169.397 177.785 168.586V163.45H179.225V168.394C179.225 169.258 179.443 169.925 179.881 170.394C180.318 170.853 180.915 171.082 181.673 171.082C182.451 171.082 183.065 170.842 183.513 170.362C183.961 169.882 184.185 169.184 184.185 168.266V163.45H185.641ZM193.821 160.378V172.218H192.365V160.378H193.821ZM200.126 172.362C199.305 172.362 198.558 172.176 197.886 171.802C197.225 171.429 196.702 170.901 196.318 170.218C195.945 169.525 195.758 168.725 195.758 167.818C195.758 166.922 195.95 166.133 196.334 165.45C196.729 164.757 197.262 164.229 197.934 163.866C198.606 163.493 199.358 163.306 200.19 163.306C201.022 163.306 201.774 163.493 202.446 163.866C203.118 164.229 203.646 164.752 204.03 165.434C204.425 166.117 204.622 166.912 204.622 167.818C204.622 168.725 204.42 169.525 204.014 170.218C203.62 170.901 203.081 171.429 202.398 171.802C201.716 172.176 200.958 172.362 200.126 172.362ZM200.126 171.082C200.649 171.082 201.14 170.96 201.598 170.714C202.057 170.469 202.425 170.101 202.702 169.61C202.99 169.12 203.134 168.522 203.134 167.818C203.134 167.114 202.996 166.517 202.718 166.026C202.441 165.536 202.078 165.173 201.63 164.938C201.182 164.693 200.697 164.57 200.174 164.57C199.641 164.57 199.15 164.693 198.702 164.938C198.265 165.173 197.913 165.536 197.646 166.026C197.38 166.517 197.246 167.114 197.246 167.818C197.246 168.533 197.374 169.136 197.63 169.626C197.897 170.117 198.249 170.485 198.686 170.73C199.124 170.965 199.604 171.082 200.126 171.082ZM207.993 164.874C208.249 164.373 208.611 163.984 209.081 163.706C209.561 163.429 210.142 163.29 210.825 163.29V164.794H210.441C208.809 164.794 207.993 165.68 207.993 167.45V172.218H206.537V163.45H207.993V164.874ZM220.505 167.498C220.505 167.776 220.489 168.069 220.457 168.378H213.449C213.503 169.242 213.796 169.92 214.329 170.41C214.873 170.89 215.529 171.13 216.297 171.13C216.927 171.13 217.449 170.986 217.865 170.698C218.292 170.4 218.591 170.005 218.761 169.514H220.329C220.095 170.357 219.625 171.045 218.921 171.578C218.217 172.101 217.343 172.362 216.297 172.362C215.465 172.362 214.719 172.176 214.057 171.802C213.407 171.429 212.895 170.901 212.521 170.218C212.148 169.525 211.961 168.725 211.961 167.818C211.961 166.912 212.143 166.117 212.505 165.434C212.868 164.752 213.375 164.229 214.025 163.866C214.687 163.493 215.444 163.306 216.297 163.306C217.129 163.306 217.865 163.488 218.505 163.85C219.145 164.213 219.636 164.714 219.977 165.354C220.329 165.984 220.505 166.698 220.505 167.498ZM219.001 167.194C219.001 166.64 218.879 166.165 218.633 165.77C218.388 165.365 218.052 165.061 217.625 164.858C217.209 164.645 216.745 164.538 216.233 164.538C215.497 164.538 214.868 164.773 214.345 165.242C213.833 165.712 213.54 166.362 213.465 167.194H219.001ZM232.971 163.29C233.654 163.29 234.262 163.434 234.795 163.722C235.329 164 235.75 164.421 236.059 164.986C236.369 165.552 236.523 166.24 236.523 167.05V172.218H235.083V167.258C235.083 166.384 234.865 165.717 234.427 165.258C234.001 164.789 233.419 164.554 232.683 164.554C231.926 164.554 231.323 164.8 230.875 165.29C230.427 165.77 230.203 166.469 230.203 167.386V172.218H228.763V167.258C228.763 166.384 228.545 165.717 228.107 165.258C227.681 164.789 227.099 164.554 226.363 164.554C225.606 164.554 225.003 164.8 224.555 165.29C224.107 165.77 223.883 166.469 223.883 167.386V172.218H222.427V163.45H223.883V164.714C224.171 164.256 224.555 163.904 225.035 163.658C225.526 163.413 226.065 163.29 226.651 163.29C227.387 163.29 228.038 163.456 228.603 163.786C229.169 164.117 229.59 164.602 229.867 165.242C230.113 164.624 230.518 164.144 231.083 163.802C231.649 163.461 232.278 163.29 232.971 163.29ZM244.953 164.65V169.818C244.953 170.245 245.044 170.549 245.225 170.73C245.407 170.901 245.721 170.986 246.169 170.986H247.241V172.218H245.929C245.119 172.218 244.511 172.032 244.105 171.658C243.7 171.285 243.497 170.672 243.497 169.818V164.65H242.361V163.45H243.497V161.242H244.953V163.45H247.241V164.65H244.953ZM257.005 167.498C257.005 167.776 256.989 168.069 256.957 168.378H249.949C250.003 169.242 250.296 169.92 250.829 170.41C251.373 170.89 252.029 171.13 252.797 171.13C253.427 171.13 253.949 170.986 254.365 170.698C254.792 170.4 255.091 170.005 255.261 169.514H256.829C256.595 170.357 256.125 171.045 255.421 171.578C254.717 172.101 253.843 172.362 252.797 172.362C251.965 172.362 251.219 172.176 250.557 171.802C249.907 171.429 249.395 170.901 249.021 170.218C248.648 169.525 248.461 168.725 248.461 167.818C248.461 166.912 248.643 166.117 249.005 165.434C249.368 164.752 249.875 164.229 250.525 163.866C251.187 163.493 251.944 163.306 252.797 163.306C253.629 163.306 254.365 163.488 255.005 163.85C255.645 164.213 256.136 164.714 256.477 165.354C256.829 165.984 257.005 166.698 257.005 167.498ZM255.501 167.194C255.501 166.64 255.379 166.165 255.133 165.77C254.888 165.365 254.552 165.061 254.125 164.858C253.709 164.645 253.245 164.538 252.733 164.538C251.997 164.538 251.368 164.773 250.845 165.242C250.333 165.712 250.04 166.362 249.965 167.194H255.501ZM260.383 160.378V172.218H258.927V160.378H260.383ZM264.321 160.378V172.218H262.865V160.378H264.321ZM274.578 163.45V172.218H273.122V170.922C272.845 171.37 272.456 171.722 271.954 171.978C271.464 172.224 270.92 172.346 270.322 172.346C269.64 172.346 269.026 172.208 268.482 171.93C267.938 171.642 267.506 171.216 267.186 170.65C266.877 170.085 266.722 169.397 266.722 168.586V163.45H268.162V168.394C268.162 169.258 268.381 169.925 268.818 170.394C269.256 170.853 269.853 171.082 270.61 171.082C271.389 171.082 272.002 170.842 272.45 170.362C272.898 169.882 273.122 169.184 273.122 168.266V163.45H274.578ZM280.141 172.362C279.469 172.362 278.866 172.25 278.333 172.026C277.799 171.792 277.378 171.472 277.069 171.066C276.759 170.65 276.589 170.176 276.557 169.642H278.061C278.103 170.08 278.306 170.437 278.669 170.714C279.042 170.992 279.527 171.13 280.125 171.13C280.679 171.13 281.117 171.008 281.437 170.762C281.757 170.517 281.917 170.208 281.917 169.834C281.917 169.45 281.746 169.168 281.405 168.986C281.063 168.794 280.535 168.608 279.821 168.426C279.17 168.256 278.637 168.085 278.221 167.914C277.815 167.733 277.463 167.472 277.165 167.13C276.877 166.778 276.733 166.32 276.733 165.754C276.733 165.306 276.866 164.896 277.133 164.522C277.399 164.149 277.778 163.856 278.269 163.642C278.759 163.418 279.319 163.306 279.949 163.306C280.919 163.306 281.703 163.552 282.301 164.042C282.898 164.533 283.218 165.205 283.261 166.058H281.805C281.773 165.6 281.586 165.232 281.245 164.954C280.914 164.677 280.466 164.538 279.901 164.538C279.378 164.538 278.962 164.65 278.653 164.874C278.343 165.098 278.189 165.392 278.189 165.754C278.189 166.042 278.279 166.282 278.461 166.474C278.653 166.656 278.887 166.805 279.165 166.922C279.453 167.029 279.847 167.152 280.349 167.29C280.978 167.461 281.49 167.632 281.885 167.802C282.279 167.962 282.615 168.208 282.893 168.538C283.181 168.869 283.33 169.301 283.341 169.834C283.341 170.314 283.207 170.746 282.941 171.13C282.674 171.514 282.295 171.818 281.805 172.042C281.325 172.256 280.77 172.362 280.141 172.362ZM289.118 167.802C289.118 166.906 289.299 166.122 289.662 165.45C290.024 164.768 290.52 164.24 291.15 163.866C291.79 163.493 292.499 163.306 293.278 163.306C294.046 163.306 294.712 163.472 295.278 163.802C295.843 164.133 296.264 164.549 296.542 165.05V163.45H298.014V172.218H296.542V170.586C296.254 171.098 295.822 171.525 295.246 171.866C294.68 172.197 294.019 172.362 293.262 172.362C292.483 172.362 291.779 172.17 291.15 171.786C290.52 171.402 290.024 170.864 289.662 170.17C289.299 169.477 289.118 168.688 289.118 167.802ZM296.542 167.818C296.542 167.157 296.408 166.581 296.142 166.09C295.875 165.6 295.512 165.226 295.054 164.97C294.606 164.704 294.11 164.57 293.566 164.57C293.022 164.57 292.526 164.698 292.078 164.954C291.63 165.21 291.272 165.584 291.006 166.074C290.739 166.565 290.606 167.141 290.606 167.802C290.606 168.474 290.739 169.061 291.006 169.562C291.272 170.053 291.63 170.432 292.078 170.698C292.526 170.954 293.022 171.082 293.566 171.082C294.11 171.082 294.606 170.954 295.054 170.698C295.512 170.432 295.875 170.053 296.142 169.562C296.408 169.061 296.542 168.48 296.542 167.818ZM301.93 164.874C302.186 164.373 302.549 163.984 303.018 163.706C303.498 163.429 304.08 163.29 304.762 163.29V164.794H304.378C302.746 164.794 301.93 165.68 301.93 167.45V172.218H300.474V163.45H301.93V164.874ZM305.899 167.818C305.899 166.912 306.08 166.122 306.443 165.45C306.806 164.768 307.307 164.24 307.947 163.866C308.598 163.493 309.339 163.306 310.171 163.306C311.248 163.306 312.134 163.568 312.827 164.09C313.531 164.613 313.995 165.338 314.219 166.266H312.651C312.502 165.733 312.208 165.312 311.771 165.002C311.344 164.693 310.811 164.538 310.171 164.538C309.339 164.538 308.667 164.826 308.155 165.402C307.643 165.968 307.387 166.773 307.387 167.818C307.387 168.874 307.643 169.69 308.155 170.266C308.667 170.842 309.339 171.13 310.171 171.13C310.811 171.13 311.344 170.981 311.771 170.682C312.198 170.384 312.491 169.957 312.651 169.402H314.219C313.984 170.298 313.515 171.018 312.811 171.562C312.107 172.096 311.227 172.362 310.171 172.362C309.339 172.362 308.598 172.176 307.947 171.802C307.307 171.429 306.806 170.901 306.443 170.218C306.08 169.536 305.899 168.736 305.899 167.818ZM323.938 163.45V172.218H322.482V170.922C322.204 171.37 321.815 171.722 321.314 171.978C320.823 172.224 320.279 172.346 319.682 172.346C318.999 172.346 318.386 172.208 317.842 171.93C317.298 171.642 316.866 171.216 316.546 170.65C316.236 170.085 316.082 169.397 316.082 168.586V163.45H317.522V168.394C317.522 169.258 317.74 169.925 318.178 170.394C318.615 170.853 319.212 171.082 319.97 171.082C320.748 171.082 321.362 170.842 321.81 170.362C322.258 169.882 322.482 169.184 322.482 168.266V163.45H323.938ZM67.0083 191.802C67.0083 190.906 67.1896 190.122 67.5523 189.45C67.915 188.768 68.411 188.24 69.0403 187.866C69.6803 187.493 70.395 187.306 71.1843 187.306C71.867 187.306 72.5016 187.466 73.0883 187.786C73.675 188.096 74.123 188.506 74.4323 189.018V184.378H75.9043V196.218H74.4323V194.57C74.1443 195.093 73.7176 195.525 73.1523 195.866C72.587 196.197 71.9256 196.362 71.1683 196.362C70.3896 196.362 69.6803 196.17 69.0403 195.786C68.411 195.402 67.915 194.864 67.5523 194.17C67.1896 193.477 67.0083 192.688 67.0083 191.802ZM74.4323 191.818C74.4323 191.157 74.299 190.581 74.0323 190.09C73.7656 189.6 73.403 189.226 72.9443 188.97C72.4963 188.704 72.0003 188.57 71.4563 188.57C70.9123 188.57 70.4163 188.698 69.9683 188.954C69.5203 189.21 69.163 189.584 68.8963 190.074C68.6296 190.565 68.4963 191.141 68.4963 191.802C68.4963 192.474 68.6296 193.061 68.8963 193.562C69.163 194.053 69.5203 194.432 69.9683 194.698C70.4163 194.954 70.9123 195.082 71.4563 195.082C72.0003 195.082 72.4963 194.954 72.9443 194.698C73.403 194.432 73.7656 194.053 74.0323 193.562C74.299 193.061 74.4323 192.48 74.4323 191.818ZM79.1168 186.026C78.8395 186.026 78.6048 185.93 78.4128 185.738C78.2208 185.546 78.1248 185.312 78.1248 185.034C78.1248 184.757 78.2208 184.522 78.4128 184.33C78.6048 184.138 78.8395 184.042 79.1168 184.042C79.3835 184.042 79.6075 184.138 79.7888 184.33C79.9808 184.522 80.0768 184.757 80.0768 185.034C80.0768 185.312 79.9808 185.546 79.7888 185.738C79.6075 185.93 79.3835 186.026 79.1168 186.026ZM79.8208 187.45V196.218H78.3648V187.45H79.8208ZM85.9183 187.306C86.6756 187.306 87.337 187.472 87.9023 187.802C88.4783 188.133 88.905 188.549 89.1823 189.05V187.45H90.6543V196.41C90.6543 197.21 90.4836 197.92 90.1423 198.538C89.801 199.168 89.3103 199.658 88.6703 200.01C88.041 200.362 87.305 200.538 86.4623 200.538C85.3103 200.538 84.3503 200.266 83.5823 199.722C82.8143 199.178 82.361 198.437 82.2223 197.498H83.6623C83.8223 198.032 84.153 198.458 84.6543 198.778C85.1556 199.109 85.7583 199.274 86.4623 199.274C87.2623 199.274 87.913 199.024 88.4143 198.522C88.9263 198.021 89.1823 197.317 89.1823 196.41V194.57C88.8943 195.082 88.4676 195.509 87.9023 195.85C87.337 196.192 86.6756 196.362 85.9183 196.362C85.1396 196.362 84.4303 196.17 83.7903 195.786C83.161 195.402 82.665 194.864 82.3023 194.17C81.9396 193.477 81.7583 192.688 81.7583 191.802C81.7583 190.906 81.9396 190.122 82.3023 189.45C82.665 188.768 83.161 188.24 83.7903 187.866C84.4303 187.493 85.1396 187.306 85.9183 187.306ZM89.1823 191.818C89.1823 191.157 89.049 190.581 88.7823 190.09C88.5156 189.6 88.153 189.226 87.6943 188.97C87.2463 188.704 86.7503 188.57 86.2063 188.57C85.6623 188.57 85.1663 188.698 84.7183 188.954C84.2703 189.21 83.913 189.584 83.6463 190.074C83.3796 190.565 83.2463 191.141 83.2463 191.802C83.2463 192.474 83.3796 193.061 83.6463 193.562C83.913 194.053 84.2703 194.432 84.7183 194.698C85.1663 194.954 85.6623 195.082 86.2063 195.082C86.7503 195.082 87.2463 194.954 87.6943 194.698C88.153 194.432 88.5156 194.053 88.7823 193.562C89.049 193.061 89.1823 192.48 89.1823 191.818ZM97.3868 187.29C98.4535 187.29 99.3175 187.616 99.9788 188.266C100.64 188.906 100.971 189.834 100.971 191.05V196.218H99.5308V191.258C99.5308 190.384 99.3121 189.717 98.8748 189.258C98.4375 188.789 97.8401 188.554 97.0828 188.554C96.3148 188.554 95.7015 188.794 95.2428 189.274C94.7948 189.754 94.5708 190.453 94.5708 191.37V196.218H93.1148V187.45H94.5708V188.698C94.8588 188.25 95.2481 187.904 95.7388 187.658C96.2401 187.413 96.7895 187.29 97.3868 187.29ZM104.101 186.026C103.824 186.026 103.589 185.93 103.397 185.738C103.205 185.546 103.109 185.312 103.109 185.034C103.109 184.757 103.205 184.522 103.397 184.33C103.589 184.138 103.824 184.042 104.101 184.042C104.368 184.042 104.592 184.138 104.773 184.33C104.965 184.522 105.061 184.757 105.061 185.034C105.061 185.312 104.965 185.546 104.773 185.738C104.592 185.93 104.368 186.026 104.101 186.026ZM104.805 187.45V196.218H103.349V187.45H104.805ZM110.391 196.362C109.719 196.362 109.116 196.25 108.583 196.026C108.049 195.792 107.628 195.472 107.319 195.066C107.009 194.65 106.839 194.176 106.807 193.642H108.311C108.353 194.08 108.556 194.437 108.919 194.714C109.292 194.992 109.777 195.13 110.375 195.13C110.929 195.13 111.367 195.008 111.687 194.762C112.007 194.517 112.167 194.208 112.167 193.834C112.167 193.45 111.996 193.168 111.655 192.986C111.313 192.794 110.785 192.608 110.071 192.426C109.42 192.256 108.887 192.085 108.471 191.914C108.065 191.733 107.713 191.472 107.415 191.13C107.127 190.778 106.983 190.32 106.983 189.754C106.983 189.306 107.116 188.896 107.383 188.522C107.649 188.149 108.028 187.856 108.519 187.642C109.009 187.418 109.569 187.306 110.199 187.306C111.169 187.306 111.953 187.552 112.551 188.042C113.148 188.533 113.468 189.205 113.511 190.058H112.055C112.023 189.6 111.836 189.232 111.495 188.954C111.164 188.677 110.716 188.538 110.151 188.538C109.628 188.538 109.212 188.65 108.903 188.874C108.593 189.098 108.439 189.392 108.439 189.754C108.439 190.042 108.529 190.282 108.711 190.474C108.903 190.656 109.137 190.805 109.415 190.922C109.703 191.029 110.097 191.152 110.599 191.29C111.228 191.461 111.74 191.632 112.135 191.802C112.529 191.962 112.865 192.208 113.143 192.538C113.431 192.869 113.58 193.301 113.591 193.834C113.591 194.314 113.457 194.746 113.191 195.13C112.924 195.514 112.545 195.818 112.055 196.042C111.575 196.256 111.02 196.362 110.391 196.362ZM118.75 196.362C118.078 196.362 117.475 196.25 116.942 196.026C116.409 195.792 115.987 195.472 115.678 195.066C115.369 194.65 115.198 194.176 115.166 193.642H116.67C116.713 194.08 116.915 194.437 117.278 194.714C117.651 194.992 118.137 195.13 118.734 195.13C119.289 195.13 119.726 195.008 120.046 194.762C120.366 194.517 120.526 194.208 120.526 193.834C120.526 193.45 120.355 193.168 120.014 192.986C119.673 192.794 119.145 192.608 118.43 192.426C117.779 192.256 117.246 192.085 116.83 191.914C116.425 191.733 116.073 191.472 115.774 191.13C115.486 190.778 115.342 190.32 115.342 189.754C115.342 189.306 115.475 188.896 115.742 188.522C116.009 188.149 116.387 187.856 116.878 187.642C117.369 187.418 117.929 187.306 118.558 187.306C119.529 187.306 120.313 187.552 120.91 188.042C121.507 188.533 121.827 189.205 121.87 190.058H120.414C120.382 189.6 120.195 189.232 119.854 188.954C119.523 188.677 119.075 188.538 118.51 188.538C117.987 188.538 117.571 188.65 117.262 188.874C116.953 189.098 116.798 189.392 116.798 189.754C116.798 190.042 116.889 190.282 117.07 190.474C117.262 190.656 117.497 190.805 117.774 190.922C118.062 191.029 118.457 191.152 118.958 191.29C119.587 191.461 120.099 191.632 120.494 191.802C120.889 191.962 121.225 192.208 121.502 192.538C121.79 192.869 121.939 193.301 121.95 193.834C121.95 194.314 121.817 194.746 121.55 195.13C121.283 195.514 120.905 195.818 120.414 196.042C119.934 196.256 119.379 196.362 118.75 196.362ZM124.757 186.026C124.48 186.026 124.245 185.93 124.053 185.738C123.861 185.546 123.765 185.312 123.765 185.034C123.765 184.757 123.861 184.522 124.053 184.33C124.245 184.138 124.48 184.042 124.757 184.042C125.024 184.042 125.248 184.138 125.429 184.33C125.621 184.522 125.717 184.757 125.717 185.034C125.717 185.312 125.621 185.546 125.429 185.738C125.248 185.93 125.024 186.026 124.757 186.026ZM125.461 187.45V196.218H124.005V187.45H125.461ZM138.487 187.29C139.17 187.29 139.778 187.434 140.311 187.722C140.844 188 141.266 188.421 141.575 188.986C141.884 189.552 142.039 190.24 142.039 191.05V196.218H140.599V191.258C140.599 190.384 140.38 189.717 139.943 189.258C139.516 188.789 138.935 188.554 138.199 188.554C137.442 188.554 136.839 188.8 136.391 189.29C135.943 189.77 135.719 190.469 135.719 191.386V196.218H134.279V191.258C134.279 190.384 134.06 189.717 133.623 189.258C133.196 188.789 132.615 188.554 131.879 188.554C131.122 188.554 130.519 188.8 130.071 189.29C129.623 189.77 129.399 190.469 129.399 191.386V196.218H127.943V187.45H129.399V188.714C129.687 188.256 130.071 187.904 130.551 187.658C131.042 187.413 131.58 187.29 132.167 187.29C132.903 187.29 133.554 187.456 134.119 187.786C134.684 188.117 135.106 188.602 135.383 189.242C135.628 188.624 136.034 188.144 136.599 187.802C137.164 187.461 137.794 187.29 138.487 187.29ZM144.891 196.314C144.614 196.314 144.379 196.218 144.187 196.026C143.995 195.834 143.899 195.6 143.899 195.322C143.899 195.045 143.995 194.81 144.187 194.618C144.379 194.426 144.614 194.33 144.891 194.33C145.158 194.33 145.382 194.426 145.563 194.618C145.755 194.81 145.851 195.045 145.851 195.322C145.851 195.6 145.755 195.834 145.563 196.026C145.382 196.218 145.158 196.314 144.891 196.314ZM157.108 196.33C156.074 196.33 155.13 196.09 154.276 195.61C153.423 195.12 152.746 194.442 152.244 193.578C151.754 192.704 151.508 191.722 151.508 190.634C151.508 189.546 151.754 188.57 152.244 187.706C152.746 186.832 153.423 186.154 154.276 185.674C155.13 185.184 156.074 184.938 157.108 184.938C158.154 184.938 159.103 185.184 159.956 185.674C160.81 186.154 161.482 186.826 161.972 187.69C162.463 188.554 162.708 189.536 162.708 190.634C162.708 191.733 162.463 192.714 161.972 193.578C161.482 194.442 160.81 195.12 159.956 195.61C159.103 196.09 158.154 196.33 157.108 196.33ZM157.108 195.066C157.887 195.066 158.586 194.885 159.204 194.522C159.834 194.16 160.324 193.642 160.676 192.97C161.039 192.298 161.22 191.52 161.22 190.634C161.22 189.738 161.039 188.96 160.676 188.298C160.324 187.626 159.839 187.109 159.22 186.746C158.602 186.384 157.898 186.202 157.108 186.202C156.319 186.202 155.615 186.384 154.996 186.746C154.378 187.109 153.887 187.626 153.524 188.298C153.172 188.96 152.996 189.738 152.996 190.634C152.996 191.52 153.172 192.298 153.524 192.97C153.887 193.642 154.378 194.16 154.996 194.522C155.626 194.885 156.33 195.066 157.108 195.066ZM166.086 188.874C166.342 188.373 166.705 187.984 167.174 187.706C167.654 187.429 168.236 187.29 168.918 187.29V188.794H168.534C166.902 188.794 166.086 189.68 166.086 191.45V196.218H164.63V187.45H166.086V188.874ZM174.871 187.29C175.938 187.29 176.802 187.616 177.463 188.266C178.125 188.906 178.455 189.834 178.455 191.05V196.218H177.015V191.258C177.015 190.384 176.797 189.717 176.359 189.258C175.922 188.789 175.325 188.554 174.567 188.554C173.799 188.554 173.186 188.794 172.727 189.274C172.279 189.754 172.055 190.453 172.055 191.37V196.218H170.599V187.45H172.055V188.698C172.343 188.25 172.733 187.904 173.223 187.658C173.725 187.413 174.274 187.29 174.871 187.29ZM180.29 191.802C180.29 190.906 180.471 190.122 180.834 189.45C181.196 188.768 181.692 188.24 182.322 187.866C182.962 187.493 183.671 187.306 184.45 187.306C185.218 187.306 185.884 187.472 186.45 187.802C187.015 188.133 187.436 188.549 187.714 189.05V187.45H189.186V196.218H187.714V194.586C187.426 195.098 186.994 195.525 186.418 195.866C185.852 196.197 185.191 196.362 184.434 196.362C183.655 196.362 182.951 196.17 182.322 195.786C181.692 195.402 181.196 194.864 180.834 194.17C180.471 193.477 180.29 192.688 180.29 191.802ZM187.714 191.818C187.714 191.157 187.58 190.581 187.314 190.09C187.047 189.6 186.684 189.226 186.226 188.97C185.778 188.704 185.282 188.57 184.738 188.57C184.194 188.57 183.698 188.698 183.25 188.954C182.802 189.21 182.444 189.584 182.178 190.074C181.911 190.565 181.778 191.141 181.778 191.802C181.778 192.474 181.911 193.061 182.178 193.562C182.444 194.053 182.802 194.432 183.25 194.698C183.698 194.954 184.194 195.082 184.738 195.082C185.282 195.082 185.778 194.954 186.226 194.698C186.684 194.432 187.047 194.053 187.314 193.562C187.58 193.061 187.714 192.48 187.714 191.818ZM193.102 188.874C193.358 188.373 193.721 187.984 194.19 187.706C194.67 187.429 195.251 187.29 195.934 187.29V188.794H195.55C193.918 188.794 193.102 189.68 193.102 191.45V196.218H191.646V187.45H193.102V188.874ZM205.615 191.498C205.615 191.776 205.599 192.069 205.567 192.378H198.559C198.612 193.242 198.905 193.92 199.439 194.41C199.983 194.89 200.639 195.13 201.407 195.13C202.036 195.13 202.559 194.986 202.975 194.698C203.401 194.4 203.7 194.005 203.871 193.514H205.439C205.204 194.357 204.735 195.045 204.031 195.578C203.327 196.101 202.452 196.362 201.407 196.362C200.575 196.362 199.828 196.176 199.167 195.802C198.516 195.429 198.004 194.901 197.631 194.218C197.257 193.525 197.071 192.725 197.071 191.818C197.071 190.912 197.252 190.117 197.615 189.434C197.977 188.752 198.484 188.229 199.135 187.866C199.796 187.493 200.553 187.306 201.407 187.306C202.239 187.306 202.975 187.488 203.615 187.85C204.255 188.213 204.745 188.714 205.087 189.354C205.439 189.984 205.615 190.698 205.615 191.498ZM204.111 191.194C204.111 190.64 203.988 190.165 203.743 189.77C203.497 189.365 203.161 189.061 202.735 188.858C202.319 188.645 201.855 188.538 201.343 188.538C200.607 188.538 199.977 188.773 199.455 189.242C198.943 189.712 198.649 190.362 198.575 191.194H204.111ZM215.37 188.65H213.53V196.218H212.074V188.65H210.938V187.45H212.074V186.826C212.074 185.845 212.325 185.13 212.826 184.682C213.338 184.224 214.154 183.994 215.274 183.994V185.21C214.634 185.21 214.181 185.338 213.914 185.594C213.658 185.84 213.53 186.25 213.53 186.826V187.45H215.37V188.65ZM216.524 191.802C216.524 190.906 216.705 190.122 217.068 189.45C217.431 188.768 217.927 188.24 218.556 187.866C219.196 187.493 219.905 187.306 220.684 187.306C221.452 187.306 222.119 187.472 222.684 187.802C223.249 188.133 223.671 188.549 223.948 189.05V187.45H225.42V196.218H223.948V194.586C223.66 195.098 223.228 195.525 222.652 195.866C222.087 196.197 221.425 196.362 220.668 196.362C219.889 196.362 219.185 196.17 218.556 195.786C217.927 195.402 217.431 194.864 217.068 194.17C216.705 193.477 216.524 192.688 216.524 191.802ZM223.948 191.818C223.948 191.157 223.815 190.581 223.548 190.09C223.281 189.6 222.919 189.226 222.46 188.97C222.012 188.704 221.516 188.57 220.972 188.57C220.428 188.57 219.932 188.698 219.484 188.954C219.036 189.21 218.679 189.584 218.412 190.074C218.145 190.565 218.012 191.141 218.012 191.802C218.012 192.474 218.145 193.061 218.412 193.562C218.679 194.053 219.036 194.432 219.484 194.698C219.932 194.954 220.428 195.082 220.972 195.082C221.516 195.082 222.012 194.954 222.46 194.698C222.919 194.432 223.281 194.053 223.548 193.562C223.815 193.061 223.948 192.48 223.948 191.818ZM235.656 187.45V196.218H234.2V194.922C233.923 195.37 233.534 195.722 233.032 195.978C232.542 196.224 231.998 196.346 231.4 196.346C230.718 196.346 230.104 196.208 229.56 195.93C229.016 195.642 228.584 195.216 228.264 194.65C227.955 194.085 227.8 193.397 227.8 192.586V187.45H229.24V192.394C229.24 193.258 229.459 193.925 229.896 194.394C230.334 194.853 230.931 195.082 231.688 195.082C232.467 195.082 233.08 194.842 233.528 194.362C233.976 193.882 234.2 193.184 234.2 192.266V187.45H235.656ZM237.571 191.818C237.571 190.912 237.752 190.122 238.115 189.45C238.477 188.768 238.979 188.24 239.619 187.866C240.269 187.493 241.011 187.306 241.843 187.306C242.92 187.306 243.805 187.568 244.499 188.09C245.203 188.613 245.667 189.338 245.891 190.266H244.323C244.173 189.733 243.88 189.312 243.443 189.002C243.016 188.693 242.483 188.538 241.843 188.538C241.011 188.538 240.339 188.826 239.827 189.402C239.315 189.968 239.059 190.773 239.059 191.818C239.059 192.874 239.315 193.69 239.827 194.266C240.339 194.842 241.011 195.13 241.843 195.13C242.483 195.13 243.016 194.981 243.443 194.682C243.869 194.384 244.163 193.957 244.323 193.402H245.891C245.656 194.298 245.187 195.018 244.483 195.562C243.779 196.096 242.899 196.362 241.843 196.362C241.011 196.362 240.269 196.176 239.619 195.802C238.979 195.429 238.477 194.901 238.115 194.218C237.752 193.536 237.571 192.736 237.571 191.818ZM248.586 186.026C248.308 186.026 248.074 185.93 247.882 185.738C247.69 185.546 247.594 185.312 247.594 185.034C247.594 184.757 247.69 184.522 247.882 184.33C248.074 184.138 248.308 184.042 248.586 184.042C248.852 184.042 249.076 184.138 249.258 184.33C249.45 184.522 249.546 184.757 249.546 185.034C249.546 185.312 249.45 185.546 249.258 185.738C249.076 185.93 248.852 186.026 248.586 186.026ZM249.29 187.45V196.218H247.834V187.45H249.29ZM253.227 189.082C253.526 188.56 253.963 188.133 254.539 187.802C255.115 187.472 255.771 187.306 256.507 187.306C257.296 187.306 258.006 187.493 258.635 187.866C259.264 188.24 259.76 188.768 260.123 189.45C260.486 190.122 260.667 190.906 260.667 191.802C260.667 192.688 260.486 193.477 260.123 194.17C259.76 194.864 259.259 195.402 258.619 195.786C257.99 196.17 257.286 196.362 256.507 196.362C255.75 196.362 255.083 196.197 254.507 195.866C253.942 195.536 253.515 195.114 253.227 194.602V196.218H251.771V184.378H253.227V189.082ZM259.179 191.802C259.179 191.141 259.046 190.565 258.779 190.074C258.512 189.584 258.15 189.21 257.691 188.954C257.243 188.698 256.747 188.57 256.203 188.57C255.67 188.57 255.174 188.704 254.715 188.97C254.267 189.226 253.904 189.605 253.627 190.106C253.36 190.597 253.227 191.168 253.227 191.818C253.227 192.48 253.36 193.061 253.627 193.562C253.904 194.053 254.267 194.432 254.715 194.698C255.174 194.954 255.67 195.082 256.203 195.082C256.747 195.082 257.243 194.954 257.691 194.698C258.15 194.432 258.512 194.053 258.779 193.562C259.046 193.061 259.179 192.474 259.179 191.802ZM270.36 187.45V196.218H268.904V194.922C268.626 195.37 268.237 195.722 267.736 195.978C267.245 196.224 266.701 196.346 266.104 196.346C265.421 196.346 264.808 196.208 264.264 195.93C263.72 195.642 263.288 195.216 262.968 194.65C262.658 194.085 262.504 193.397 262.504 192.586V187.45H263.944V192.394C263.944 193.258 264.162 193.925 264.6 194.394C265.037 194.853 265.634 195.082 266.392 195.082C267.17 195.082 267.784 194.842 268.232 194.362C268.68 193.882 268.904 193.184 268.904 192.266V187.45H270.36ZM275.922 196.362C275.25 196.362 274.647 196.25 274.114 196.026C273.581 195.792 273.159 195.472 272.85 195.066C272.541 194.65 272.37 194.176 272.338 193.642H273.842C273.885 194.08 274.087 194.437 274.45 194.714C274.823 194.992 275.309 195.13 275.906 195.13C276.461 195.13 276.898 195.008 277.218 194.762C277.538 194.517 277.698 194.208 277.698 193.834C277.698 193.45 277.527 193.168 277.186 192.986C276.845 192.794 276.317 192.608 275.602 192.426C274.951 192.256 274.418 192.085 274.002 191.914C273.597 191.733 273.245 191.472 272.946 191.13C272.658 190.778 272.514 190.32 272.514 189.754C272.514 189.306 272.647 188.896 272.914 188.522C273.181 188.149 273.559 187.856 274.05 187.642C274.541 187.418 275.101 187.306 275.73 187.306C276.701 187.306 277.485 187.552 278.082 188.042C278.679 188.533 278.999 189.205 279.042 190.058H277.586C277.554 189.6 277.367 189.232 277.026 188.954C276.695 188.677 276.247 188.538 275.682 188.538C275.159 188.538 274.743 188.65 274.434 188.874C274.125 189.098 273.97 189.392 273.97 189.754C273.97 190.042 274.061 190.282 274.242 190.474C274.434 190.656 274.669 190.805 274.946 190.922C275.234 191.029 275.629 191.152 276.13 191.29C276.759 191.461 277.271 191.632 277.666 191.802C278.061 191.962 278.397 192.208 278.674 192.538C278.962 192.869 279.111 193.301 279.122 193.834C279.122 194.314 278.989 194.746 278.722 195.13C278.455 195.514 278.077 195.818 277.586 196.042C277.106 196.256 276.551 196.362 275.922 196.362ZM288.707 194.874L291.427 187.45H292.979L289.539 196.218H287.843L284.403 187.45H285.971L288.707 194.874ZM295.164 186.026C294.886 186.026 294.652 185.93 294.46 185.738C294.268 185.546 294.172 185.312 294.172 185.034C294.172 184.757 294.268 184.522 294.46 184.33C294.652 184.138 294.886 184.042 295.164 184.042C295.43 184.042 295.654 184.138 295.836 184.33C296.028 184.522 296.124 184.757 296.124 185.034C296.124 185.312 296.028 185.546 295.836 185.738C295.654 185.93 295.43 186.026 295.164 186.026ZM295.868 187.45V196.218H294.412V187.45H295.868ZM300.125 188.65V193.818C300.125 194.245 300.216 194.549 300.397 194.73C300.579 194.901 300.893 194.986 301.341 194.986H302.413V196.218H301.101C300.291 196.218 299.683 196.032 299.277 195.658C298.872 195.285 298.669 194.672 298.669 193.818V188.65H297.533V187.45H298.669V185.242H300.125V187.45H302.413V188.65H300.125ZM303.633 191.802C303.633 190.906 303.815 190.122 304.177 189.45C304.54 188.768 305.036 188.24 305.665 187.866C306.305 187.493 307.015 187.306 307.793 187.306C308.561 187.306 309.228 187.472 309.793 187.802C310.359 188.133 310.78 188.549 311.057 189.05V187.45H312.529V196.218H311.057V194.586C310.769 195.098 310.337 195.525 309.761 195.866C309.196 196.197 308.535 196.362 307.777 196.362C306.999 196.362 306.295 196.17 305.665 195.786C305.036 195.402 304.54 194.864 304.177 194.17C303.815 193.477 303.633 192.688 303.633 191.802ZM311.057 191.818C311.057 191.157 310.924 190.581 310.657 190.09C310.391 189.6 310.028 189.226 309.569 188.97C309.121 188.704 308.625 188.57 308.081 188.57C307.537 188.57 307.041 188.698 306.593 188.954C306.145 189.21 305.788 189.584 305.521 190.074C305.255 190.565 305.121 191.141 305.121 191.802C305.121 192.474 305.255 193.061 305.521 193.562C305.788 194.053 306.145 194.432 306.593 194.698C307.041 194.954 307.537 195.082 308.081 195.082C308.625 195.082 309.121 194.954 309.569 194.698C310.028 194.432 310.391 194.053 310.657 193.562C310.924 193.061 311.057 192.48 311.057 191.818ZM322.99 191.498C322.99 191.776 322.974 192.069 322.942 192.378H315.934C315.987 193.242 316.28 193.92 316.814 194.41C317.358 194.89 318.014 195.13 318.782 195.13C319.411 195.13 319.934 194.986 320.35 194.698C320.776 194.4 321.075 194.005 321.246 193.514H322.814C322.579 194.357 322.11 195.045 321.406 195.578C320.702 196.101 319.827 196.362 318.782 196.362C317.95 196.362 317.203 196.176 316.542 195.802C315.891 195.429 315.379 194.901 315.006 194.218C314.632 193.525 314.446 192.725 314.446 191.818C314.446 190.912 314.627 190.117 314.99 189.434C315.352 188.752 315.859 188.229 316.51 187.866C317.171 187.493 317.928 187.306 318.782 187.306C319.614 187.306 320.35 187.488 320.99 187.85C321.63 188.213 322.12 188.714 322.462 189.354C322.814 189.984 322.99 190.698 322.99 191.498ZM321.486 191.194C321.486 190.64 321.363 190.165 321.118 189.77C320.872 189.365 320.536 189.061 320.11 188.858C319.694 188.645 319.23 188.538 318.718 188.538C317.982 188.538 317.352 188.773 316.83 189.242C316.318 189.712 316.024 190.362 315.95 191.194H321.486ZM99.5393 211.45V220.218H98.0833V218.922C97.8059 219.37 97.4166 219.722 96.9153 219.978C96.4246 220.224 95.8806 220.346 95.2833 220.346C94.6006 220.346 93.9873 220.208 93.4433 219.93C92.8993 219.642 92.4673 219.216 92.1473 218.65C91.8379 218.085 91.6833 217.397 91.6833 216.586V211.45H93.1233V216.394C93.1233 217.258 93.3419 217.925 93.7793 218.394C94.2166 218.853 94.8139 219.082 95.5713 219.082C96.3499 219.082 96.9633 218.842 97.4113 218.362C97.8593 217.882 98.0833 217.184 98.0833 216.266V211.45H99.5393ZM103.454 212.874C103.71 212.373 104.072 211.984 104.542 211.706C105.022 211.429 105.603 211.29 106.286 211.29V212.794H105.902C104.27 212.794 103.454 213.68 103.454 215.45V220.218H101.998V211.45H103.454V212.874ZM112.238 211.29C113.305 211.29 114.169 211.616 114.83 212.266C115.492 212.906 115.822 213.834 115.822 215.05V220.218H114.382V215.258C114.382 214.384 114.164 213.717 113.726 213.258C113.289 212.789 112.692 212.554 111.934 212.554C111.166 212.554 110.553 212.794 110.094 213.274C109.646 213.754 109.422 214.453 109.422 215.37V220.218H107.966V211.45H109.422V212.698C109.71 212.25 110.1 211.904 110.59 211.658C111.092 211.413 111.641 211.29 112.238 211.29ZM117.657 215.802C117.657 214.906 117.838 214.122 118.201 213.45C118.563 212.768 119.059 212.24 119.689 211.866C120.329 211.493 121.038 211.306 121.817 211.306C122.585 211.306 123.251 211.472 123.817 211.802C124.382 212.133 124.803 212.549 125.081 213.05V211.45H126.553V220.218H125.081V218.586C124.793 219.098 124.361 219.525 123.785 219.866C123.219 220.197 122.558 220.362 121.801 220.362C121.022 220.362 120.318 220.17 119.689 219.786C119.059 219.402 118.563 218.864 118.201 218.17C117.838 217.477 117.657 216.688 117.657 215.802ZM125.081 215.818C125.081 215.157 124.947 214.581 124.681 214.09C124.414 213.6 124.051 213.226 123.593 212.97C123.145 212.704 122.649 212.57 122.105 212.57C121.561 212.57 121.065 212.698 120.617 212.954C120.169 213.21 119.811 213.584 119.545 214.074C119.278 214.565 119.145 215.141 119.145 215.802C119.145 216.474 119.278 217.061 119.545 217.562C119.811 218.053 120.169 218.432 120.617 218.698C121.065 218.954 121.561 219.082 122.105 219.082C122.649 219.082 123.145 218.954 123.593 218.698C124.051 218.432 124.414 218.053 124.681 217.562C124.947 217.061 125.081 216.48 125.081 215.818ZM141.279 215.498C141.279 215.776 141.263 216.069 141.231 216.378H134.223C134.276 217.242 134.57 217.92 135.103 218.41C135.647 218.89 136.303 219.13 137.071 219.13C137.7 219.13 138.223 218.986 138.639 218.698C139.066 218.4 139.364 218.005 139.535 217.514H141.103C140.868 218.357 140.399 219.045 139.695 219.578C138.991 220.101 138.116 220.362 137.071 220.362C136.239 220.362 135.492 220.176 134.831 219.802C134.18 219.429 133.668 218.901 133.295 218.218C132.922 217.525 132.735 216.725 132.735 215.818C132.735 214.912 132.916 214.117 133.279 213.434C133.642 212.752 134.148 212.229 134.799 211.866C135.46 211.493 136.218 211.306 137.071 211.306C137.903 211.306 138.639 211.488 139.279 211.85C139.919 212.213 140.41 212.714 140.751 213.354C141.103 213.984 141.279 214.698 141.279 215.498ZM139.775 215.194C139.775 214.64 139.652 214.165 139.407 213.77C139.162 213.365 138.826 213.061 138.399 212.858C137.983 212.645 137.519 212.538 137.007 212.538C136.271 212.538 135.642 212.773 135.119 213.242C134.607 213.712 134.314 214.362 134.239 215.194H139.775ZM146.817 211.306C147.574 211.306 148.235 211.472 148.801 211.802C149.377 212.133 149.803 212.549 150.081 213.05V211.45H151.553V220.41C151.553 221.21 151.382 221.92 151.041 222.538C150.699 223.168 150.209 223.658 149.569 224.01C148.939 224.362 148.203 224.538 147.361 224.538C146.209 224.538 145.249 224.266 144.481 223.722C143.713 223.178 143.259 222.437 143.121 221.498H144.561C144.721 222.032 145.051 222.458 145.553 222.778C146.054 223.109 146.657 223.274 147.361 223.274C148.161 223.274 148.811 223.024 149.313 222.522C149.825 222.021 150.081 221.317 150.081 220.41V218.57C149.793 219.082 149.366 219.509 148.801 219.85C148.235 220.192 147.574 220.362 146.817 220.362C146.038 220.362 145.329 220.17 144.689 219.786C144.059 219.402 143.563 218.864 143.201 218.17C142.838 217.477 142.657 216.688 142.657 215.802C142.657 214.906 142.838 214.122 143.201 213.45C143.563 212.768 144.059 212.24 144.689 211.866C145.329 211.493 146.038 211.306 146.817 211.306ZM150.081 215.818C150.081 215.157 149.947 214.581 149.681 214.09C149.414 213.6 149.051 213.226 148.593 212.97C148.145 212.704 147.649 212.57 147.105 212.57C146.561 212.57 146.065 212.698 145.617 212.954C145.169 213.21 144.811 213.584 144.545 214.074C144.278 214.565 144.145 215.141 144.145 215.802C144.145 216.474 144.278 217.061 144.545 217.562C144.811 218.053 145.169 218.432 145.617 218.698C146.065 218.954 146.561 219.082 147.105 219.082C147.649 219.082 148.145 218.954 148.593 218.698C149.051 218.432 149.414 218.053 149.681 217.562C149.947 217.061 150.081 216.48 150.081 215.818ZM162.013 215.498C162.013 215.776 161.997 216.069 161.965 216.378H154.957C155.011 217.242 155.304 217.92 155.837 218.41C156.381 218.89 157.037 219.13 157.805 219.13C158.435 219.13 158.957 218.986 159.373 218.698C159.8 218.4 160.099 218.005 160.269 217.514H161.837C161.603 218.357 161.133 219.045 160.429 219.578C159.725 220.101 158.851 220.362 157.805 220.362C156.973 220.362 156.227 220.176 155.565 219.802C154.915 219.429 154.403 218.901 154.029 218.218C153.656 217.525 153.469 216.725 153.469 215.818C153.469 214.912 153.651 214.117 154.013 213.434C154.376 212.752 154.883 212.229 155.533 211.866C156.195 211.493 156.952 211.306 157.805 211.306C158.637 211.306 159.373 211.488 160.013 211.85C160.653 212.213 161.144 212.714 161.485 213.354C161.837 213.984 162.013 214.698 162.013 215.498ZM160.509 215.194C160.509 214.64 160.387 214.165 160.141 213.77C159.896 213.365 159.56 213.061 159.133 212.858C158.717 212.645 158.253 212.538 157.741 212.538C157.005 212.538 156.376 212.773 155.853 213.242C155.341 213.712 155.048 214.362 154.973 215.194H160.509ZM167.039 220.362C166.367 220.362 165.764 220.25 165.231 220.026C164.698 219.792 164.276 219.472 163.967 219.066C163.658 218.65 163.487 218.176 163.455 217.642H164.959C165.002 218.08 165.204 218.437 165.567 218.714C165.94 218.992 166.426 219.13 167.023 219.13C167.578 219.13 168.015 219.008 168.335 218.762C168.655 218.517 168.815 218.208 168.815 217.834C168.815 217.45 168.644 217.168 168.303 216.986C167.962 216.794 167.434 216.608 166.719 216.426C166.068 216.256 165.535 216.085 165.119 215.914C164.714 215.733 164.362 215.472 164.063 215.13C163.775 214.778 163.631 214.32 163.631 213.754C163.631 213.306 163.764 212.896 164.031 212.522C164.298 212.149 164.676 211.856 165.167 211.642C165.658 211.418 166.218 211.306 166.847 211.306C167.818 211.306 168.602 211.552 169.199 212.042C169.796 212.533 170.116 213.205 170.159 214.058H168.703C168.671 213.6 168.484 213.232 168.143 212.954C167.812 212.677 167.364 212.538 166.799 212.538C166.276 212.538 165.86 212.65 165.551 212.874C165.242 213.098 165.087 213.392 165.087 213.754C165.087 214.042 165.178 214.282 165.359 214.474C165.551 214.656 165.786 214.805 166.063 214.922C166.351 215.029 166.746 215.152 167.247 215.29C167.876 215.461 168.388 215.632 168.783 215.802C169.178 215.962 169.514 216.208 169.791 216.538C170.079 216.869 170.228 217.301 170.239 217.834C170.239 218.314 170.106 218.746 169.839 219.13C169.572 219.514 169.194 219.818 168.703 220.042C168.223 220.256 167.668 220.362 167.039 220.362ZM174.071 212.65V217.818C174.071 218.245 174.161 218.549 174.343 218.73C174.524 218.901 174.839 218.986 175.286 218.986H176.359V220.218H175.047C174.236 220.218 173.628 220.032 173.223 219.658C172.817 219.285 172.615 218.672 172.615 217.818V212.65H171.479V211.45H172.615V209.242H174.071V211.45H176.359V212.65H174.071ZM177.579 215.802C177.579 214.906 177.76 214.122 178.123 213.45C178.485 212.768 178.981 212.24 179.611 211.866C180.251 211.493 180.96 211.306 181.739 211.306C182.507 211.306 183.173 211.472 183.739 211.802C184.304 212.133 184.725 212.549 185.003 213.05V211.45H186.475V220.218H185.003V218.586C184.715 219.098 184.283 219.525 183.707 219.866C183.141 220.197 182.48 220.362 181.723 220.362C180.944 220.362 180.24 220.17 179.611 219.786C178.981 219.402 178.485 218.864 178.123 218.17C177.76 217.477 177.579 216.688 177.579 215.802ZM185.003 215.818C185.003 215.157 184.869 214.581 184.603 214.09C184.336 213.6 183.973 213.226 183.515 212.97C183.067 212.704 182.571 212.57 182.027 212.57C181.483 212.57 180.987 212.698 180.539 212.954C180.091 213.21 179.733 213.584 179.467 214.074C179.2 214.565 179.067 215.141 179.067 215.802C179.067 216.474 179.2 217.061 179.467 217.562C179.733 218.053 180.091 218.432 180.539 218.698C180.987 218.954 181.483 219.082 182.027 219.082C182.571 219.082 183.067 218.954 183.515 218.698C183.973 218.432 184.336 218.053 184.603 217.562C184.869 217.061 185.003 216.48 185.003 215.818ZM192.039 220.362C191.367 220.362 190.764 220.25 190.231 220.026C189.698 219.792 189.276 219.472 188.967 219.066C188.658 218.65 188.487 218.176 188.455 217.642H189.959C190.002 218.08 190.204 218.437 190.567 218.714C190.94 218.992 191.426 219.13 192.023 219.13C192.578 219.13 193.015 219.008 193.335 218.762C193.655 218.517 193.815 218.208 193.815 217.834C193.815 217.45 193.644 217.168 193.303 216.986C192.962 216.794 192.434 216.608 191.719 216.426C191.068 216.256 190.535 216.085 190.119 215.914C189.714 215.733 189.362 215.472 189.063 215.13C188.775 214.778 188.631 214.32 188.631 213.754C188.631 213.306 188.764 212.896 189.031 212.522C189.298 212.149 189.676 211.856 190.167 211.642C190.658 211.418 191.218 211.306 191.847 211.306C192.818 211.306 193.602 211.552 194.199 212.042C194.796 212.533 195.116 213.205 195.159 214.058H193.703C193.671 213.6 193.484 213.232 193.143 212.954C192.812 212.677 192.364 212.538 191.799 212.538C191.276 212.538 190.86 212.65 190.551 212.874C190.242 213.098 190.087 213.392 190.087 213.754C190.087 214.042 190.178 214.282 190.359 214.474C190.551 214.656 190.786 214.805 191.063 214.922C191.351 215.029 191.746 215.152 192.247 215.29C192.876 215.461 193.388 215.632 193.783 215.802C194.178 215.962 194.514 216.208 194.791 216.538C195.079 216.869 195.228 217.301 195.239 217.834C195.239 218.314 195.106 218.746 194.839 219.13C194.572 219.514 194.194 219.818 193.703 220.042C193.223 220.256 192.668 220.362 192.039 220.362ZM212.104 211.29C212.787 211.29 213.395 211.434 213.928 211.722C214.461 212 214.883 212.421 215.192 212.986C215.501 213.552 215.656 214.24 215.656 215.05V220.218H214.216V215.258C214.216 214.384 213.997 213.717 213.56 213.258C213.133 212.789 212.552 212.554 211.816 212.554C211.059 212.554 210.456 212.8 210.008 213.29C209.56 213.77 209.336 214.469 209.336 215.386V220.218H207.896V215.258C207.896 214.384 207.677 213.717 207.24 213.258C206.813 212.789 206.232 212.554 205.496 212.554C204.739 212.554 204.136 212.8 203.688 213.29C203.24 213.77 203.016 214.469 203.016 215.386V220.218H201.56V211.45H203.016V212.714C203.304 212.256 203.688 211.904 204.168 211.658C204.659 211.413 205.197 211.29 205.784 211.29C206.52 211.29 207.171 211.456 207.736 211.786C208.301 212.117 208.723 212.602 209 213.242C209.245 212.624 209.651 212.144 210.216 211.802C210.781 211.461 211.411 211.29 212.104 211.29ZM221.869 220.362C221.047 220.362 220.301 220.176 219.629 219.802C218.967 219.429 218.445 218.901 218.061 218.218C217.687 217.525 217.501 216.725 217.501 215.818C217.501 214.922 217.693 214.133 218.077 213.45C218.471 212.757 219.005 212.229 219.677 211.866C220.349 211.493 221.101 211.306 221.933 211.306C222.765 211.306 223.517 211.493 224.189 211.866C224.861 212.229 225.389 212.752 225.773 213.434C226.167 214.117 226.365 214.912 226.365 215.818C226.365 216.725 226.162 217.525 225.757 218.218C225.362 218.901 224.823 219.429 224.141 219.802C223.458 220.176 222.701 220.362 221.869 220.362ZM221.869 219.082C222.391 219.082 222.882 218.96 223.341 218.714C223.799 218.469 224.167 218.101 224.445 217.61C224.733 217.12 224.877 216.522 224.877 215.818C224.877 215.114 224.738 214.517 224.461 214.026C224.183 213.536 223.821 213.173 223.373 212.938C222.925 212.693 222.439 212.57 221.917 212.57C221.383 212.57 220.893 212.693 220.445 212.938C220.007 213.173 219.655 213.536 219.389 214.026C219.122 214.517 218.989 215.114 218.989 215.818C218.989 216.533 219.117 217.136 219.373 217.626C219.639 218.117 219.991 218.485 220.429 218.73C220.866 218.965 221.346 219.082 221.869 219.082ZM229.735 212.874C229.991 212.373 230.354 211.984 230.823 211.706C231.303 211.429 231.884 211.29 232.567 211.29V212.794H232.183C230.551 212.794 229.735 213.68 229.735 215.45V220.218H228.279V211.45H229.735V212.874ZM235.704 213.082C236.002 212.56 236.44 212.133 237.016 211.802C237.592 211.472 238.248 211.306 238.984 211.306C239.773 211.306 240.482 211.493 241.112 211.866C241.741 212.24 242.237 212.768 242.6 213.45C242.962 214.122 243.144 214.906 243.144 215.802C243.144 216.688 242.962 217.477 242.6 218.17C242.237 218.864 241.736 219.402 241.096 219.786C240.466 220.17 239.762 220.362 238.984 220.362C238.226 220.362 237.56 220.197 236.984 219.866C236.418 219.536 235.992 219.114 235.704 218.602V220.218H234.248V208.378H235.704V213.082ZM241.656 215.802C241.656 215.141 241.522 214.565 241.256 214.074C240.989 213.584 240.626 213.21 240.168 212.954C239.72 212.698 239.224 212.57 238.68 212.57C238.146 212.57 237.65 212.704 237.192 212.97C236.744 213.226 236.381 213.605 236.104 214.106C235.837 214.597 235.704 215.168 235.704 215.818C235.704 216.48 235.837 217.061 236.104 217.562C236.381 218.053 236.744 218.432 237.192 218.698C237.65 218.954 238.146 219.082 238.68 219.082C239.224 219.082 239.72 218.954 240.168 218.698C240.626 218.432 240.989 218.053 241.256 217.562C241.522 217.061 241.656 216.474 241.656 215.802ZM245.812 210.026C245.535 210.026 245.3 209.93 245.108 209.738C244.916 209.546 244.82 209.312 244.82 209.034C244.82 208.757 244.916 208.522 245.108 208.33C245.3 208.138 245.535 208.042 245.812 208.042C246.079 208.042 246.303 208.138 246.484 208.33C246.676 208.522 246.772 208.757 246.772 209.034C246.772 209.312 246.676 209.546 246.484 209.738C246.303 209.93 246.079 210.026 245.812 210.026ZM246.516 211.45V220.218H245.06V211.45H246.516ZM263.807 211.29C264.49 211.29 265.098 211.434 265.631 211.722C266.165 212 266.586 212.421 266.895 212.986C267.205 213.552 267.359 214.24 267.359 215.05V220.218H265.919V215.258C265.919 214.384 265.701 213.717 265.263 213.258C264.837 212.789 264.255 212.554 263.519 212.554C262.762 212.554 262.159 212.8 261.711 213.29C261.263 213.77 261.039 214.469 261.039 215.386V220.218H259.599V215.258C259.599 214.384 259.381 213.717 258.943 213.258C258.517 212.789 257.935 212.554 257.199 212.554C256.442 212.554 255.839 212.8 255.391 213.29C254.943 213.77 254.719 214.469 254.719 215.386V220.218H253.263V211.45H254.719V212.714C255.007 212.256 255.391 211.904 255.871 211.658C256.362 211.413 256.901 211.29 257.487 211.29C258.223 211.29 258.874 211.456 259.439 211.786C260.005 212.117 260.426 212.602 260.703 213.242C260.949 212.624 261.354 212.144 261.919 211.802C262.485 211.461 263.114 211.29 263.807 211.29ZM273.572 220.362C272.75 220.362 272.004 220.176 271.332 219.802C270.67 219.429 270.148 218.901 269.764 218.218C269.39 217.525 269.204 216.725 269.204 215.818C269.204 214.922 269.396 214.133 269.78 213.45C270.174 212.757 270.708 212.229 271.38 211.866C272.052 211.493 272.804 211.306 273.636 211.306C274.468 211.306 275.22 211.493 275.892 211.866C276.564 212.229 277.092 212.752 277.476 213.434C277.87 214.117 278.068 214.912 278.068 215.818C278.068 216.725 277.865 217.525 277.46 218.218C277.065 218.901 276.526 219.429 275.844 219.802C275.161 220.176 274.404 220.362 273.572 220.362ZM273.572 219.082C274.094 219.082 274.585 218.96 275.044 218.714C275.502 218.469 275.87 218.101 276.148 217.61C276.436 217.12 276.58 216.522 276.58 215.818C276.58 215.114 276.441 214.517 276.164 214.026C275.886 213.536 275.524 213.173 275.076 212.938C274.628 212.693 274.142 212.57 273.62 212.57C273.086 212.57 272.596 212.693 272.148 212.938C271.71 213.173 271.358 213.536 271.092 214.026C270.825 214.517 270.692 215.114 270.692 215.818C270.692 216.533 270.82 217.136 271.076 217.626C271.342 218.117 271.694 218.485 272.132 218.73C272.569 218.965 273.049 219.082 273.572 219.082ZM281.438 212.874C281.694 212.373 282.057 211.984 282.526 211.706C283.006 211.429 283.587 211.29 284.27 211.29V212.794H283.886C282.254 212.794 281.438 213.68 281.438 215.45V220.218H279.982V211.45H281.438V212.874ZM287.407 213.082C287.705 212.56 288.143 212.133 288.719 211.802C289.295 211.472 289.951 211.306 290.687 211.306C291.476 211.306 292.185 211.493 292.815 211.866C293.444 212.24 293.94 212.768 294.303 213.45C294.665 214.122 294.847 214.906 294.847 215.802C294.847 216.688 294.665 217.477 294.303 218.17C293.94 218.864 293.439 219.402 292.799 219.786C292.169 220.17 291.465 220.362 290.687 220.362C289.929 220.362 289.263 220.197 288.687 219.866C288.121 219.536 287.695 219.114 287.407 218.602V220.218H285.951V208.378H287.407V213.082ZM293.359 215.802C293.359 215.141 293.225 214.565 292.959 214.074C292.692 213.584 292.329 213.21 291.871 212.954C291.423 212.698 290.927 212.57 290.383 212.57C289.849 212.57 289.353 212.704 288.895 212.97C288.447 213.226 288.084 213.605 287.807 214.106C287.54 214.597 287.407 215.168 287.407 215.818C287.407 216.48 287.54 217.061 287.807 217.562C288.084 218.053 288.447 218.432 288.895 218.698C289.353 218.954 289.849 219.082 290.383 219.082C290.927 219.082 291.423 218.954 291.871 218.698C292.329 218.432 292.692 218.053 292.959 217.562C293.225 217.061 293.359 216.474 293.359 215.802ZM297.515 210.026C297.238 210.026 297.003 209.93 296.811 209.738C296.619 209.546 296.523 209.312 296.523 209.034C296.523 208.757 296.619 208.522 296.811 208.33C297.003 208.138 297.238 208.042 297.515 208.042C297.782 208.042 298.006 208.138 298.187 208.33C298.379 208.522 298.475 208.757 298.475 209.034C298.475 209.312 298.379 209.546 298.187 209.738C298.006 209.93 297.782 210.026 297.515 210.026ZM298.219 211.45V220.218H296.763V211.45H298.219ZM127.727 236.874C127.983 236.373 128.346 235.984 128.815 235.706C129.295 235.429 129.876 235.29 130.559 235.29V236.794H130.175C128.543 236.794 127.727 237.68 127.727 239.45V244.218H126.271V235.45H127.727V236.874ZM136.592 235.29C137.253 235.29 137.85 235.434 138.384 235.722C138.917 236 139.333 236.421 139.632 236.986C139.941 237.552 140.096 238.24 140.096 239.05V244.218H138.656V239.258C138.656 238.384 138.437 237.717 138 237.258C137.562 236.789 136.965 236.554 136.208 236.554C135.44 236.554 134.826 236.794 134.368 237.274C133.92 237.754 133.696 238.453 133.696 239.37V244.218H132.24V232.378H133.696V236.698C133.984 236.25 134.378 235.904 134.88 235.658C135.392 235.413 135.962 235.29 136.592 235.29ZM146.298 244.362C145.477 244.362 144.73 244.176 144.058 243.802C143.397 243.429 142.874 242.901 142.49 242.218C142.117 241.525 141.93 240.725 141.93 239.818C141.93 238.922 142.122 238.133 142.506 237.45C142.901 236.757 143.434 236.229 144.106 235.866C144.778 235.493 145.53 235.306 146.362 235.306C147.194 235.306 147.946 235.493 148.618 235.866C149.29 236.229 149.818 236.752 150.202 237.434C150.597 238.117 150.794 238.912 150.794 239.818C150.794 240.725 150.592 241.525 150.186 242.218C149.792 242.901 149.253 243.429 148.57 243.802C147.888 244.176 147.13 244.362 146.298 244.362ZM146.298 243.082C146.821 243.082 147.312 242.96 147.77 242.714C148.229 242.469 148.597 242.101 148.874 241.61C149.162 241.12 149.306 240.522 149.306 239.818C149.306 239.114 149.168 238.517 148.89 238.026C148.613 237.536 148.25 237.173 147.802 236.938C147.354 236.693 146.869 236.57 146.346 236.57C145.813 236.57 145.322 236.693 144.874 236.938C144.437 237.173 144.085 237.536 143.818 238.026C143.552 238.517 143.418 239.114 143.418 239.818C143.418 240.533 143.546 241.136 143.802 241.626C144.069 242.117 144.421 242.485 144.858 242.73C145.296 242.965 145.776 243.082 146.298 243.082ZM156.981 235.29C158.047 235.29 158.911 235.616 159.573 236.266C160.234 236.906 160.565 237.834 160.565 239.05V244.218H159.125V239.258C159.125 238.384 158.906 237.717 158.469 237.258C158.031 236.789 157.434 236.554 156.677 236.554C155.909 236.554 155.295 236.794 154.837 237.274C154.389 237.754 154.165 238.453 154.165 239.37V244.218H152.709V235.45H154.165V236.698C154.453 236.25 154.842 235.904 155.333 235.658C155.834 235.413 156.383 235.29 156.981 235.29ZM162.399 239.818C162.399 238.912 162.58 238.122 162.943 237.45C163.306 236.768 163.807 236.24 164.447 235.866C165.098 235.493 165.839 235.306 166.671 235.306C167.748 235.306 168.634 235.568 169.327 236.09C170.031 236.613 170.495 237.338 170.719 238.266H169.151C169.002 237.733 168.708 237.312 168.271 237.002C167.844 236.693 167.311 236.538 166.671 236.538C165.839 236.538 165.167 236.826 164.655 237.402C164.143 237.968 163.887 238.773 163.887 239.818C163.887 240.874 164.143 241.69 164.655 242.266C165.167 242.842 165.839 243.13 166.671 243.13C167.311 243.13 167.844 242.981 168.271 242.682C168.698 242.384 168.991 241.957 169.151 241.402H170.719C170.484 242.298 170.015 243.018 169.311 243.562C168.607 244.096 167.727 244.362 166.671 244.362C165.839 244.362 165.098 244.176 164.447 243.802C163.807 243.429 163.306 242.901 162.943 242.218C162.58 241.536 162.399 240.736 162.399 239.818ZM180.438 235.45V244.218H178.982V242.922C178.704 243.37 178.315 243.722 177.814 243.978C177.323 244.224 176.779 244.346 176.182 244.346C175.499 244.346 174.886 244.208 174.342 243.93C173.798 243.642 173.366 243.216 173.046 242.65C172.736 242.085 172.582 241.397 172.582 240.586V235.45H174.022V240.394C174.022 241.258 174.24 241.925 174.678 242.394C175.115 242.853 175.712 243.082 176.47 243.082C177.248 243.082 177.862 242.842 178.31 242.362C178.758 241.882 178.982 241.184 178.982 240.266V235.45H180.438ZM186 244.362C185.328 244.362 184.725 244.25 184.192 244.026C183.659 243.792 183.237 243.472 182.928 243.066C182.619 242.65 182.448 242.176 182.416 241.642H183.92C183.963 242.08 184.165 242.437 184.528 242.714C184.901 242.992 185.387 243.13 185.984 243.13C186.539 243.13 186.976 243.008 187.296 242.762C187.616 242.517 187.776 242.208 187.776 241.834C187.776 241.45 187.605 241.168 187.264 240.986C186.923 240.794 186.395 240.608 185.68 240.426C185.029 240.256 184.496 240.085 184.08 239.914C183.675 239.733 183.323 239.472 183.024 239.13C182.736 238.778 182.592 238.32 182.592 237.754C182.592 237.306 182.725 236.896 182.992 236.522C183.259 236.149 183.637 235.856 184.128 235.642C184.619 235.418 185.179 235.306 185.808 235.306C186.779 235.306 187.563 235.552 188.16 236.042C188.757 236.533 189.077 237.205 189.12 238.058H187.664C187.632 237.6 187.445 237.232 187.104 236.954C186.773 236.677 186.325 236.538 185.76 236.538C185.237 236.538 184.821 236.65 184.512 236.874C184.203 237.098 184.048 237.392 184.048 237.754C184.048 238.042 184.139 238.282 184.32 238.474C184.512 238.656 184.747 238.805 185.024 238.922C185.312 239.029 185.707 239.152 186.208 239.29C186.837 239.461 187.349 239.632 187.744 239.802C188.139 239.962 188.475 240.208 188.752 240.538C189.04 240.869 189.189 241.301 189.2 241.834C189.2 242.314 189.067 242.746 188.8 243.13C188.533 243.514 188.155 243.818 187.664 244.042C187.184 244.256 186.629 244.362 186 244.362ZM203.297 235.45V244.218H201.841V242.922C201.564 243.37 201.174 243.722 200.673 243.978C200.182 244.224 199.638 244.346 199.041 244.346C198.358 244.346 197.745 244.208 197.201 243.93C196.657 243.642 196.225 243.216 195.905 242.65C195.596 242.085 195.441 241.397 195.441 240.586V235.45H196.881V240.394C196.881 241.258 197.1 241.925 197.537 242.394C197.974 242.853 198.572 243.082 199.329 243.082C200.108 243.082 200.721 242.842 201.169 242.362C201.617 241.882 201.841 241.184 201.841 240.266V235.45H203.297ZM207.531 236.65V241.818C207.531 242.245 207.622 242.549 207.803 242.73C207.985 242.901 208.299 242.986 208.747 242.986H209.819V244.218H208.507C207.697 244.218 207.089 244.032 206.683 243.658C206.278 243.285 206.075 242.672 206.075 241.818V236.65H204.939V235.45H206.075V233.242H207.531V235.45H209.819V236.65H207.531ZM223.849 239.498C223.849 239.776 223.833 240.069 223.801 240.378H216.793C216.847 241.242 217.14 241.92 217.673 242.41C218.217 242.89 218.873 243.13 219.641 243.13C220.271 243.13 220.793 242.986 221.209 242.698C221.636 242.4 221.935 242.005 222.105 241.514H223.673C223.439 242.357 222.969 243.045 222.265 243.578C221.561 244.101 220.687 244.362 219.641 244.362C218.809 244.362 218.063 244.176 217.401 243.802C216.751 243.429 216.239 242.901 215.865 242.218C215.492 241.525 215.305 240.725 215.305 239.818C215.305 238.912 215.487 238.117 215.849 237.434C216.212 236.752 216.719 236.229 217.369 235.866C218.031 235.493 218.788 235.306 219.641 235.306C220.473 235.306 221.209 235.488 221.849 235.85C222.489 236.213 222.98 236.714 223.321 237.354C223.673 237.984 223.849 238.698 223.849 239.498ZM222.345 239.194C222.345 238.64 222.223 238.165 221.977 237.77C221.732 237.365 221.396 237.061 220.969 236.858C220.553 236.645 220.089 236.538 219.577 236.538C218.841 236.538 218.212 236.773 217.689 237.242C217.177 237.712 216.884 238.362 216.809 239.194H222.345ZM227.547 236.65V241.818C227.547 242.245 227.638 242.549 227.819 242.73C228 242.901 228.315 242.986 228.763 242.986H229.835V244.218H228.523C227.712 244.218 227.104 244.032 226.699 243.658C226.294 243.285 226.091 242.672 226.091 241.818V236.65H224.955V235.45H226.091V233.242H227.547V235.45H229.835V236.65H227.547ZM232.351 234.026C232.074 234.026 231.839 233.93 231.647 233.738C231.455 233.546 231.359 233.312 231.359 233.034C231.359 232.757 231.455 232.522 231.647 232.33C231.839 232.138 232.074 232.042 232.351 232.042C232.618 232.042 232.842 232.138 233.023 232.33C233.215 232.522 233.311 232.757 233.311 233.034C233.311 233.312 233.215 233.546 233.023 233.738C232.842 233.93 232.618 234.026 232.351 234.026ZM233.055 235.45V244.218H231.599V235.45H233.055ZM234.993 239.802C234.993 238.906 235.174 238.122 235.537 237.45C235.899 236.768 236.395 236.24 237.025 235.866C237.665 235.493 238.374 235.306 239.153 235.306C239.921 235.306 240.587 235.472 241.153 235.802C241.718 236.133 242.139 236.549 242.417 237.05V235.45H243.889V244.218H242.417V242.586C242.129 243.098 241.697 243.525 241.121 243.866C240.555 244.197 239.894 244.362 239.137 244.362C238.358 244.362 237.654 244.17 237.025 243.786C236.395 243.402 235.899 242.864 235.537 242.17C235.174 241.477 234.993 240.688 234.993 239.802ZM242.417 239.818C242.417 239.157 242.283 238.581 242.017 238.09C241.75 237.6 241.387 237.226 240.929 236.97C240.481 236.704 239.985 236.57 239.441 236.57C238.897 236.57 238.401 236.698 237.953 236.954C237.505 237.21 237.147 237.584 236.881 238.074C236.614 238.565 236.481 239.141 236.481 239.802C236.481 240.474 236.614 241.061 236.881 241.562C237.147 242.053 237.505 242.432 237.953 242.698C238.401 242.954 238.897 243.082 239.441 243.082C239.985 243.082 240.481 242.954 240.929 242.698C241.387 242.432 241.75 242.053 242.017 241.562C242.283 241.061 242.417 240.48 242.417 239.818ZM256.893 235.29C257.576 235.29 258.184 235.434 258.717 235.722C259.251 236 259.672 236.421 259.981 236.986C260.291 237.552 260.445 238.24 260.445 239.05V244.218H259.005V239.258C259.005 238.384 258.787 237.717 258.349 237.258C257.923 236.789 257.341 236.554 256.605 236.554C255.848 236.554 255.245 236.8 254.797 237.29C254.349 237.77 254.125 238.469 254.125 239.386V244.218H252.685V239.258C252.685 238.384 252.467 237.717 252.029 237.258C251.603 236.789 251.021 236.554 250.285 236.554C249.528 236.554 248.925 236.8 248.477 237.29C248.029 237.77 247.805 238.469 247.805 239.386V244.218H246.349V235.45H247.805V236.714C248.093 236.256 248.477 235.904 248.957 235.658C249.448 235.413 249.987 235.29 250.573 235.29C251.309 235.29 251.96 235.456 252.525 235.786C253.091 236.117 253.512 236.602 253.789 237.242C254.035 236.624 254.44 236.144 255.005 235.802C255.571 235.461 256.2 235.29 256.893 235.29ZM263.298 244.314C263.02 244.314 262.786 244.218 262.594 244.026C262.402 243.834 262.306 243.6 262.306 243.322C262.306 243.045 262.402 242.81 262.594 242.618C262.786 242.426 263.02 242.33 263.298 242.33C263.564 242.33 263.788 242.426 263.97 242.618C264.162 242.81 264.258 243.045 264.258 243.322C264.258 243.6 264.162 243.834 263.97 244.026C263.788 244.218 263.564 244.314 263.298 244.314Z" fill="#6B7280"/>
<path d="M157 277.086L159.318 281.781L164.5 282.538L160.75 286.191L161.635 291.351L157 288.913L152.365 291.351L153.25 286.191L149.5 282.538L154.682 281.781L157 277.086Z" fill="#FDE047"/>
<path d="M176 277.086L178.318 281.781L183.5 282.538L179.75 286.191L180.635 291.351L176 288.913L171.365 291.351L172.25 286.191L168.5 282.538L173.682 281.781L176 277.086Z" fill="#FDE047"/>
<path d="M195 277.086L197.318 281.781L202.5 282.538L198.75 286.191L199.635 291.351L195 288.913L190.365 291.351L191.25 286.191L187.5 282.538L192.682 281.781L195 277.086Z" fill="#FDE047"/>
<path d="M214 277.086L216.318 281.781L221.5 282.538L217.75 286.191L218.635 291.351L214 288.913L209.365 291.351L210.25 286.191L206.5 282.538L211.682 281.781L214 277.086Z" fill="#FDE047"/>
<path d="M233 277.086L235.318 281.781L240.5 282.538L236.75 286.191L237.635 291.351L233 288.913L228.365 291.351L229.25 286.191L225.5 282.538L230.682 281.781L233 277.086Z" fill="#FDE047"/>
</g>
<defs>
<filter id="filter0_dd_359_2273" x="0" y="0.218262" width="390" height="362" filterUnits="userSpaceOnUse" color-interpolation-filters="sRGB">
<feFlood flood-opacity="0" result="BackgroundImageFix"/>
<feColorMatrix in="SourceAlpha" type="matrix" values="0 0 0 0 0 0 0 0 0 0 0 0 0 0 0 0 0 0 127 0" result="hardAlpha"/>
<feMorphology radius="5" operator="erode" in="SourceAlpha" result="effect1_dropShadow_359_2273"/>
<feOffset dy="10"/>
<feGaussianBlur stdDeviation="5"/>
<feColorMatrix type="matrix" values="0 0 0 0 0 0 0 0 0 0 0 0 0 0 0 0 0 0 0.04 0"/>
<feBlend mode="normal" in2="BackgroundImageFix" result="effect1_dropShadow_359_2273"/>
<feColorMatrix in="SourceAlpha" type="matrix" values="0 0 0 0 0 0 0 0 0 0 0 0 0 0 0 0 0 0 127 0" result="hardAlpha"/>
<feMorphology radius="5" operator="erode" in="SourceAlpha" result="effect2_dropShadow_359_2273"/>
<feOffset dy="20"/>
<feGaussianBlur stdDeviation="12.5"/>
<feColorMatrix type="matrix" values="0 0 0 0 0 0 0 0 0 0 0 0 0 0 0 0 0 0 0.1 0"/>
<feBlend mode="normal" in2="effect1_dropShadow_359_2273" result="effect2_dropShadow_359_2273"/>
<feBlend mode="normal" in="SourceGraphic" in2="effect2_dropShadow_359_2273" result="shape"/>
</filter>
</defs>
</svg>
