<svg width="50" height="50" viewBox="0 0 50 50" fill="none" xmlns="http://www.w3.org/2000/svg">
<path d="M31.25 10.417V14.5837M31.25 22.917V27.0837M31.25 35.417V39.5837M10.4167 10.417C9.3116 10.417 8.25179 10.856 7.47039 11.6374C6.68899 12.4188 6.25 13.4786 6.25 14.5837V20.8337C7.35507 20.8337 8.41488 21.2726 9.19628 22.054C9.97768 22.8354 10.4167 23.8953 10.4167 25.0003C10.4167 26.1054 9.97768 27.1652 9.19628 27.9466C8.41488 28.728 7.35507 29.167 6.25 29.167V35.417C6.25 36.5221 6.68899 37.5819 7.47039 38.3633C8.25179 39.1447 9.3116 39.5837 10.4167 39.5837H39.5833C40.6884 39.5837 41.7482 39.1447 42.5296 38.3633C43.311 37.5819 43.75 36.5221 43.75 35.417V29.167C42.6449 29.167 41.5851 28.728 40.8037 27.9466C40.0223 27.1652 39.5833 26.1054 39.5833 25.0003C39.5833 23.8953 40.0223 22.8354 40.8037 22.054C41.5851 21.2726 42.6449 20.8337 43.75 20.8337V14.5837C43.75 13.4786 43.311 12.4188 42.5296 11.6374C41.7482 10.856 40.6884 10.417 39.5833 10.417H10.4167Z" stroke="#2563EB" stroke-width="3" stroke-linecap="round" stroke-linejoin="round"/>
</svg>
