<svg width="555" height="512" viewBox="0 0 555 512" fill="none" xmlns="http://www.w3.org/2000/svg">
<path d="M264.691 21.2655C302.285 46.7843 324.736 96.6872 362.921 121.914C400.807 148.024 454.719 150.048 493.203 174.392C531.387 199.619 553.852 246.576 554.504 295.491C555.454 343.524 534.007 392.334 503.464 433.146C472.629 473.367 431.815 505.29 388.181 510.681C343.956 516.363 296.32 495.806 245.938 494.977C195.557 494.148 142.43 513.048 113.049 495.229C84.2593 477.119 79.8069 421.997 59.107 375.639C38.9978 328.988 2.9329 291.69 1.04409 255.144C-0.545873 217.716 32.6309 180.748 58.4766 136.378C84.6142 92.5991 102.83 41.7109 138.598 17.4248C174.367 -6.86128 226.805 -4.84406 264.691 21.2655Z" fill="white"/>
</svg>
